<?xml version="1.0" encoding="UTF-8"?>
<svg id="Layer_1" xmlns="http://www.w3.org/2000/svg" version="1.1" viewBox="0 0 595.28 841.89">
  <!-- Generator: Adobe Illustrator 29.8.1, SVG Export Plug-In . SVG Version: 2.1.1 Build 2)  -->
  <defs>
    <style>
      .st0, .st1, .st2 {
        fill: none;
      }

      .st3 {
        fill: #2398c9;
      }

      .st4 {
        fill: #2497c8;
      }

      .st5 {
        fill: #0e100e;
        font-size: 10px;
      }

      .st6 {
        fill: #f3d549;
      }

      .st7 {
        fill: #221f20;
      }

      .st8 {
        fill: #2798c7;
      }

      .st9 {
        fill: #f2d449;
      }

      .st10 {
        fill: #0c0f0f;
      }

      .st11 {
        fill: #2597c8;
      }

      .st12 {
        fill: #fff;
      }

      .st13 {
        fill: #12120e;
      }

      .st1 {
        font-family: FONTSPRINGDEMO-AcronymSemiboldRegular, 'FONTSPRING DEMO - Acronym Semibold';
        font-size: 12px;
      }

      .st2 {
        font-family: Helvetica, Helvetica;
        font-size: 14px;
      }

      .st14 {
        fill: #2697c9;
      }
    </style>
  </defs>
  <polygon class="st9" points="548.85 244.8 548.85 423.11 595.28 423.11 595.28 319.48 595.28 242.95 548.85 244.8"/>
  <g>
    <path class="st11" d="M595.36,472.05v369.49h-8.16c-16.5-17.08-33.81-36.88-57.69-43.31-26.66-7.18-41.98,5.75-65.02,14.88-32.48,12.87-66.82,20.87-100.88,28.43h-78.69c17.3-23.96,18.36-53.5-6.72-72.46h270.61s0-338.78,0-338.78c17.95,10.62,35.59,23.61,46.54,41.75Z"/>
    <path class="st4" d="M14.31-.14l56.5,23.39c54.47,20.84,99.06,27.55,149.69-6.97,4.26-2.9,8.03-6.4,12.46-9.13s9.68-4.89,14.54-7.29h96.44c12.52,5.95,23.11,13.96,30.62,25.76s13.31,25.36,18.32,38.06c-115.31,0-230.64,0-345.94,0,0,40.94.01,81.91,0,122.85L.4,150.54c0-.16,0-.32,0-.48,0-50.06,0-100.14,0-150.2h13.91Z"/>
    <path class="st14" d="M413.99-.14h181.37v142.04c-12.37-5.64-24.23-13.52-34.77-22.09-3.29-2.67-6.41-6.08-9.59-8.64-.71-.58-1.08-1.13-2.18-.94-.28-1.75-6.3-6.82-7.92-8.63-5.51-6.12-10.82-14.36-17.84-18.63-29.79-18.1-80.88,10.84-102.82-19.29-2.1-2.88-4.5-7.89-5.77-11.27-6.38-17.03-3.89-35.17-.47-52.55Z"/>
    <path class="st13" d="M595.36,141.9v330.15c-10.96-18.14-28.59-31.13-46.54-41.75l.25-7.19c7.58-7.77,17.41-13.39,23.65-22.41,29.26-42.27.79-116.74-23.87-155.9l-.03-134.57c1.1-.19,1.46.37,2.18.94,3.18,2.56,6.3,5.97,9.59,8.64,10.55,8.57,22.41,16.45,34.77,22.09Z"/>
    <path class="st10" d="M247.5-.14c-4.86,2.4-9.91,4.43-14.54,7.29s-8.2,6.23-12.46,9.13c-50.63,34.52-95.21,27.81-149.69,6.97L14.31-.14h233.19Z"/>
    <path class="st10" d="M413.99-.14c-3.42,17.38-5.91,35.52.47,52.55,1.26,3.37,3.67,8.39,5.77,11.27h-27.35c-5.02-12.7-10.99-26.51-18.32-38.06S356.46,5.81,343.94-.14h70.05Z"/>
    <path class="st6" d="M46.94,594.42c13.63,25.58,17.77,55.14,34.16,78.85,39.11,56.59,119.34,58.16,177.13,84.85,6.53,3.02,14.25,6.64,19.98,10.97,25.08,18.96,24.01,48.5,6.72,72.46H.4v-280.72c21.62-6.69,37.82,17.23,46.54,33.59Z"/>
    <path class="st10" d="M587.2,841.55h-223.59c34.06-7.57,68.39-15.56,100.88-28.43,23.04-9.13,38.36-22.06,65.02-14.88,23.89,6.44,41.19,26.23,57.69,43.31Z"/>
    <path class="st5" d="M46.94,186.53c0,25.58,0,51.19,0,76.78-15.29-5.6-30.58-11.38-46.54-14.88,0-32.62,0-65.27,0-97.89l46.54,35.99Z"/>
    <path class="st9" d="M.4,248.43c15.96,3.49,31.26,9.28,46.54,14.88,0,30.54,0,61.11,0,91.65-15.94,16.42-32.8,39.28-23.26,63.33,4.43,11.18,14.05,20.06,23.26,27.36v65.74L.4,494.6v-.48"/>
    <path class="st5" d="M46.94,511.4v83.02c-8.72-16.36-24.92-40.28-46.54-33.59v-66.22l46.54,16.8Z"/>
    <path class="st8" d="M46.94,445.66c-9.21-7.3-18.83-16.18-23.26-27.36-9.53-24.05,7.32-46.91,23.26-63.33v90.69Z"/>
  </g>
  <g>
    <path class="st7" d="M132.03,134.44v-3.15l2.61-2.3c3.83-3.32,5.76-5.28,5.8-7.21,0-1.36-.9-2.34-2.81-2.34-1.58,0-3,.78-4.05,1.53l-1.42-3.74c1.46-1.06,3.83-1.96,6.52-1.96,4.38,0,6.98,2.37,6.98,6.1,0,3.02-2.15,5.44-4.37,7.26l-1.86,1.46v.06h6.56v4.29h-13.96Z"/>
    <path class="st7" d="M163.17,124.98c0,5.55-2.34,9.77-7.43,9.77-5.4,0-7.4-4.77-7.4-9.72s2.11-9.78,7.44-9.78,7.38,4.91,7.38,9.72ZM153.57,125.01c-.01,4.09.83,5.83,2.25,5.83,1.33,0,2.15-1.77,2.15-5.83s-.8-5.81-2.17-5.81-2.23,1.73-2.23,5.81Z"/>
    <path class="st7" d="M165.27,134.44v-3.15l2.61-2.3c3.83-3.32,5.76-5.28,5.8-7.21,0-1.36-.9-2.34-2.81-2.34-1.58,0-3,.78-4.05,1.53l-1.42-3.74c1.46-1.06,3.83-1.96,6.52-1.96,4.38,0,6.98,2.37,6.98,6.1,0,3.02-2.15,5.44-4.37,7.26l-1.86,1.46v.06h6.56v4.29h-13.96Z"/>
    <path class="st7" d="M195.03,119.86h-7.38l-.27,2.04c.41-.04.74-.04,1.09-.04,1.94,0,3.97.46,5.37,1.51,1.4,1.04,2.11,2.57,2.11,4.7,0,3.45-3.05,6.69-8.56,6.69-2.38,0-4.37-.5-5.49-1.03l.87-3.91c.86.39,2.65.89,4.34.89,1.6,0,3.48-.57,3.48-2.35s-1.51-2.69-5.26-2.69c-1.01,0-1.7.07-2.5.17l1.23-10.25h10.99v4.28Z"/>
    <path class="st7" d="M204.85,134.44v-19.55h6.18l3.1,6c1.06,1.94,2.2,4.56,3.07,6.85h.08c-.29-2.57-.39-5.31-.39-8.23v-4.62h4.79v19.55h-5.53l-3.31-6.5c-1.09-2.07-2.36-4.7-3.29-7.06h-.1c.13,2.64.2,5.58.2,8.76v4.8h-4.79Z"/>
    <path class="st7" d="M229.24,129.13c.17,1.13,1.81,1.76,3.65,1.76,1.35,0,2.62-.15,3.92-.55l.66,3.5c-1.72.68-3.58.9-5.34.9-5.03,0-7.86-2.77-7.86-7.29,0-3.33,2.14-7.61,7.4-7.61,4.61,0,6.58,3.39,6.58,7.3,0,.87-.1,1.64-.19,1.99h-8.82ZM233.43,125.6c0-.83-.38-2.33-2.02-2.33-1.54,0-2.15,1.42-2.23,2.33h4.26Z"/>
    <path class="st7" d="M244.29,120.16l.82,5.26c.23,1.41.49,3.04.7,4.74h.07c.25-1.7.66-3.36.94-4.7l1.15-5.29h4.08l1.09,5.07c.33,1.6.7,3.23.95,4.92h.06c.17-1.69.42-3.35.7-4.97l.86-5.03h5.09l-4.26,14.27h-4.92l-.99-4.23c-.3-1.32-.51-2.53-.78-4.35h-.06c-.22,1.82-.45,3.08-.75,4.31l-1.06,4.28h-4.92l-4.1-14.27h5.32Z"/>
    <path class="st7" d="M268.94,129.23c1.19.59,3.11,1.21,5.07,1.21,1.79,0,2.68-.62,2.68-1.61,0-.94-.88-1.49-3.09-2.24-3.29-1.17-5.49-2.99-5.49-5.9,0-3.46,2.92-6.11,7.85-6.11,2.33,0,4,.44,5.29,1l-1.1,4.18c-.84-.37-2.29-.93-4.25-.93-1.6,0-2.47.59-2.47,1.44,0,.99,1.04,1.39,3.5,2.31,3.52,1.29,5.1,3.18,5.1,5.9,0,3.38-2.62,6.25-8.33,6.25-2.36,0-4.64-.62-5.75-1.19l.99-4.32Z"/>
    <path class="st7" d="M290.22,116.11v4.05h2.97v3.83h-2.97v4.1c0,1.7.39,2.4,1.66,2.4.53,0,.95-.05,1.24-.11v3.97c-.6.21-1.77.39-3.11.39-1.54,0-2.82-.54-3.58-1.3-.87-.87-1.32-2.27-1.32-4.45v-5h-1.76v-3.83h1.76v-2.91l5.11-1.15Z"/>
    <path class="st7" d="M303.81,134.44l-.28-1.25h-.1c-.99,1.15-2.42,1.57-3.95,1.57-2.92,0-4.72-2.1-4.72-4.48,0-3.83,3.44-5.53,8.29-5.54v-.13c0-.59-.44-1.22-2.34-1.22-1.51,0-3.1.54-4.02,1.07l-.91-3.31c.91-.49,2.95-1.29,5.9-1.29,4.92,0,6.61,2.73,6.61,6.29v4.82c0,1.42.08,2.75.23,3.47h-4.7ZM303.21,127.92c-2.13,0-3.34.59-3.34,1.84,0,.91.59,1.38,1.48,1.38.75,0,1.55-.53,1.79-1.32.06-.21.06-.48.06-.73v-1.17Z"/>
    <path class="st7" d="M311.49,124.98c0-2.27-.04-3.63-.12-4.82h4.47l.19,2.57h.12c.76-2.16,2.57-2.89,3.8-2.89.46,0,.67,0,1.04.09v4.91c-.38-.08-.78-.15-1.33-.15-1.54,0-2.58.65-2.86,1.8-.05.25-.07.56-.07.89v7.05h-5.24v-9.46Z"/>
    <path class="st7" d="M334.23,129.9l-1.1,4.53h-5.42l5.67-19.55h6.98l5.83,19.55h-5.66l-1.25-4.53h-5.05ZM338.57,126.04l-.91-3.52c-.3-1.1-.67-2.7-.97-3.85h-.06c-.29,1.15-.58,2.76-.86,3.87l-.84,3.5h3.64Z"/>
    <path class="st7" d="M348.26,124.98c0-2.27-.04-3.63-.12-4.82h4.47l.19,2.57h.12c.76-2.16,2.57-2.89,3.8-2.89.46,0,.67,0,1.04.09v4.91c-.38-.08-.78-.15-1.33-.15-1.54,0-2.58.65-2.86,1.8-.05.25-.07.56-.07.89v7.05h-5.24v-9.46Z"/>
    <path class="st7" d="M366.26,116.11v4.05h2.97v3.83h-2.97v4.1c0,1.7.39,2.4,1.66,2.4.53,0,.95-.05,1.24-.11v3.97c-.6.21-1.77.39-3.11.39-1.54,0-2.82-.54-3.58-1.3-.87-.87-1.32-2.27-1.32-4.45v-5h-1.76v-3.83h1.76v-2.91l5.11-1.15Z"/>
    <path class="st7" d="M377.92,129.23c1.19.59,3.11,1.21,5.07,1.21,1.79,0,2.68-.62,2.68-1.61,0-.94-.88-1.49-3.09-2.24-3.29-1.17-5.49-2.99-5.49-5.9,0-3.46,2.92-6.11,7.85-6.11,2.33,0,4,.44,5.29,1l-1.09,4.18c-.84-.37-2.29-.93-4.25-.93-1.59,0-2.47.59-2.47,1.44,0,.99,1.04,1.39,3.5,2.31,3.52,1.29,5.1,3.18,5.1,5.9,0,3.38-2.62,6.25-8.33,6.25-2.36,0-4.64-.62-5.75-1.19l.99-4.32Z"/>
    <path class="st7" d="M404.78,134.15c-.85.38-2.33.59-3.92.59-4.74,0-7.73-2.78-7.73-7.31,0-4.08,2.79-7.57,8.37-7.57,1.02,0,2.27.14,3.29.48l-.74,3.85c-.49-.2-1.19-.36-2.25-.36-1.96,0-3.34,1.33-3.32,3.4,0,2.33,1.6,3.44,3.45,3.44.89,0,1.63-.11,2.29-.37l.56,3.84Z"/>
    <path class="st7" d="M406.96,113.84h5.24v7.82h.06c.48-.58,1.02-.98,1.68-1.32.62-.32,1.41-.5,2.16-.5,3.22,0,5.01,2.3,5.01,6.34v8.25h-5.24v-7.68c0-1.7-.55-2.7-1.86-2.7-.96,0-1.44.57-1.68,1.13-.1.23-.13.6-.13.86v8.4h-5.24v-20.59Z"/>
    <path class="st7" d="M438.9,127.16c0,5.19-3.71,7.6-7.7,7.6-4.27,0-7.58-2.71-7.58-7.35s2.99-7.56,7.85-7.56c4.47,0,7.43,3.02,7.43,7.31ZM429,127.29c0,2.14.7,3.77,2.32,3.77,1.41,0,2.17-1.48,2.17-3.77,0-1.97-.64-3.76-2.19-3.76-1.72,0-2.31,1.89-2.31,3.76Z"/>
    <path class="st7" d="M456.09,127.16c0,5.19-3.71,7.6-7.7,7.6-4.27,0-7.58-2.71-7.58-7.35s3-7.56,7.85-7.56c4.47,0,7.43,3.02,7.43,7.31ZM446.2,127.29c0,2.14.7,3.77,2.32,3.77,1.41,0,2.18-1.48,2.18-3.77,0-1.97-.64-3.76-2.19-3.76-1.72,0-2.31,1.89-2.31,3.76Z"/>
    <path class="st7" d="M458.6,113.84h5.24v20.59h-5.24v-20.59Z"/>
    <path class="st7" d="M208.39,160.9l-1.1,4.53h-5.42l5.67-19.55h6.98l5.83,19.55h-5.66l-1.25-4.53h-5.05ZM212.73,157.04l-.91-3.52c-.3-1.1-.67-2.7-.97-3.85h-.06c-.29,1.15-.58,2.76-.86,3.87l-.84,3.5h3.64Z"/>
    <path class="st7" d="M222.42,156.02c0-1.9-.06-3.54-.12-4.86h4.51l.23,1.82h.1c.52-.74,1.89-2.14,4.28-2.14,3.32,0,5.14,2.27,5.14,6.17v8.42h-5.24v-7.77c0-1.64-.57-2.61-1.81-2.61-1.02,0-1.48.7-1.72,1.25-.12.26-.15.67-.15,1.05v8.08h-5.24v-9.41Z"/>
    <path class="st7" d="M239.79,156.02c0-1.9-.06-3.54-.12-4.86h4.51l.23,1.82h.1c.52-.74,1.89-2.14,4.28-2.14,3.32,0,5.14,2.27,5.14,6.17v8.42h-5.24v-7.77c0-1.64-.57-2.61-1.81-2.61-1.02,0-1.48.7-1.72,1.25-.12.26-.15.67-.15,1.05v8.08h-5.24v-9.41Z"/>
    <path class="st7" d="M271.24,160.58c0,2.01.06,3.65.12,4.86h-4.51l-.23-1.88h-.1c-.52.77-1.77,2.2-4.33,2.2-3.18,0-5.05-2.05-5.05-6.18v-8.41h5.24v7.58c0,1.82.59,2.81,1.83,2.81.98,0,1.48-.67,1.68-1.21.1-.21.13-.48.13-.78v-8.4h5.24v9.41Z"/>
    <path class="st7" d="M282.71,165.44l-.28-1.25h-.1c-.99,1.15-2.42,1.57-3.95,1.57-2.92,0-4.72-2.1-4.72-4.48,0-3.83,3.44-5.53,8.29-5.54v-.13c0-.59-.44-1.22-2.34-1.22-1.51,0-3.1.54-4.02,1.07l-.91-3.31c.91-.49,2.95-1.29,5.9-1.29,4.92,0,6.61,2.73,6.61,6.29v4.82c0,1.42.08,2.75.23,3.47h-4.7ZM282.11,158.92c-2.13,0-3.34.59-3.34,1.84,0,.91.59,1.38,1.48,1.38.75,0,1.55-.53,1.79-1.32.06-.21.06-.48.06-.73v-1.17Z"/>
    <path class="st7" d="M290.39,144.84h5.24v20.59h-5.24v-20.59Z"/>
    <path class="st7" d="M304.8,146.15c1.48-.23,3.7-.42,6.32-.42,2.99,0,5.14.41,6.61,1.52,1.25.96,1.93,2.35,1.93,4.26,0,2.44-1.83,4.17-3.35,4.73v.1c1.3.56,2,1.81,2.5,3.5.59,1.99,1.23,4.83,1.61,5.58h-5.35c-.3-.57-.81-2.1-1.37-4.5-.53-2.34-1.25-2.83-2.86-2.83h-.85v7.33h-5.18v-19.28ZM309.98,154.35h1.36c1.97,0,3.11-.96,3.11-2.43s-.96-2.3-2.71-2.31c-.99,0-1.51.05-1.77.12v4.63Z"/>
    <path class="st7" d="M326.81,160.13c.17,1.13,1.81,1.76,3.65,1.76,1.35,0,2.62-.15,3.92-.55l.66,3.5c-1.72.68-3.58.9-5.34.9-5.03,0-7.86-2.77-7.86-7.29,0-3.33,2.14-7.61,7.4-7.61,4.61,0,6.58,3.39,6.58,7.3,0,.87-.1,1.64-.19,1.99h-8.82ZM331,156.6c0-.83-.38-2.33-2.02-2.33-1.54,0-2.15,1.42-2.23,2.33h4.26Z"/>
    <path class="st7" d="M338.18,156.02c0-1.9-.06-3.52-.12-4.86h4.51l.23,1.81h.06c1.07-1.41,2.65-2.13,4.62-2.13,2.98,0,5.87,2.63,5.87,7.28,0,5.23-3.39,7.63-6.49,7.63-1.62,0-2.86-.62-3.4-1.36h-.06v6.79h-5.23v-15.16ZM343.41,159.2c0,.32.02.61.08.87.21.92,1,1.7,2.05,1.7,1.56,0,2.52-1.34,2.52-3.4s-.81-3.45-2.46-3.45c-1.04,0-1.94.82-2.11,1.83-.06.22-.07.44-.07.68v1.76Z"/>
    <path class="st7" d="M370.56,158.16c0,5.19-3.71,7.6-7.7,7.6-4.27,0-7.58-2.71-7.58-7.35s3-7.56,7.85-7.56c4.47,0,7.43,3.02,7.43,7.31ZM360.67,158.29c0,2.14.7,3.77,2.32,3.77,1.41,0,2.18-1.48,2.18-3.77,0-1.97-.64-3.76-2.19-3.76-1.72,0-2.31,1.89-2.31,3.76Z"/>
    <path class="st7" d="M373.07,155.98c0-2.27-.04-3.63-.12-4.82h4.47l.19,2.57h.12c.76-2.16,2.57-2.89,3.8-2.89.46,0,.67,0,1.04.09v4.91c-.38-.08-.78-.15-1.33-.15-1.54,0-2.58.65-2.86,1.8-.05.25-.07.56-.07.89v7.05h-5.24v-9.46Z"/>
    <path class="st7" d="M391.07,147.11v4.05h2.97v3.83h-2.97v4.1c0,1.7.39,2.4,1.66,2.4.53,0,.95-.05,1.24-.11v3.97c-.6.21-1.77.39-3.11.39-1.54,0-2.82-.54-3.58-1.3-.87-.87-1.32-2.27-1.32-4.45v-5h-1.76v-3.83h1.76v-2.91l5.11-1.15Z"/>
  </g>
  <g>
    <path class="st3" d="M95.08,219.47h1.76c0,1.23.92,1.79,2.23,1.79,1.21,0,2.21-.46,2.21-1.62,0-1.01-.76-1.2-2.51-1.6-1.78-.41-3.55-.89-3.55-2.87,0-1.75,1.52-2.93,3.72-2.93s3.87,1.23,3.87,3.11h-1.67c0-1.02-.82-1.72-2.16-1.72-1.16,0-2.06.5-2.06,1.51,0,.95.82,1.16,2.61,1.58,1.72.39,3.44.82,3.44,2.86,0,1.64-1.26,3.06-3.91,3.06s-3.98-1.29-3.98-3.17Z"/>
    <path class="st3" d="M104.84,219.94v-3.48h-1.36v-1.32h1.36v-1.91l1.6-.62v2.53h1.7v1.32h-1.7v3.34c0,1.03.36,1.38,1.09,1.38.32,0,.61-.06.61-.06v1.28s-.64.07-1.11.07c-1.58,0-2.19-.78-2.19-2.53Z"/>
    <path class="st3" d="M110.81,219.36c0,1.39.52,1.88,1.47,1.88,1.18,0,1.88-.83,1.88-2.55v-3.56h1.6v7.27h-1.6v-1.29c-.28.7-.94,1.46-2.44,1.46s-2.51-.81-2.51-2.81v-4.64h1.59v4.22Z"/>
    <path class="st3" d="M123.94,222.41h-1.59v-1.04c-.51.79-1.32,1.22-2.4,1.22-1.99,0-3.08-1.68-3.08-3.81s1.11-3.82,3.08-3.82c1.08,0,1.89.43,2.4,1.23v-3.73h1.59v9.95ZM120.4,216.25c-1.13,0-1.95.88-1.95,2.52s.81,2.51,1.95,2.51,1.95-.86,1.95-2.51-.82-2.52-1.95-2.52Z"/>
    <path class="st3" d="M126.65,219.28c.15,1.34.9,2.09,1.93,2.09.73,0,1.31-.37,1.63-.97h1.62c-.49,1.39-1.67,2.19-3.26,2.19-2.27,0-3.52-1.54-3.52-3.77s1.24-3.86,3.5-3.86,3.48,1.51,3.48,3.87c0,.25-.01.46-.01.46h-5.38ZM126.64,218.3h3.8c-.14-1.41-.87-2.12-1.87-2.12-1.06,0-1.8.8-1.93,2.12Z"/>
    <path class="st3" d="M138.14,218.17c0-1.39-.54-1.87-1.49-1.87-1.18,0-1.91.82-1.91,2.54v3.57h-1.59v-7.27h1.59v1.3c.28-.71.95-1.48,2.48-1.48s2.51.81,2.51,2.82v4.64h-1.59v-4.24Z"/>
    <path class="st3" d="M141.87,219.94v-3.48h-1.36v-1.32h1.36v-1.91l1.6-.62v2.53h1.7v1.32h-1.7v3.34c0,1.03.36,1.38,1.09,1.38.32,0,.61-.06.61-.06v1.28s-.64.07-1.11.07c-1.58,0-2.19-.78-2.19-2.53Z"/>
    <path class="st3" d="M152.79,215.36v7.05h-1.7v-9.95h1.56l4.72,7.05v-7.05h1.71v9.95h-1.56l-4.72-7.05Z"/>
    <path class="st3" d="M166.75,220.5c0,1.25.23,1.91.23,1.91h-1.55s-.11-.35-.18-.99c-.42.63-1.17,1.17-2.51,1.17-1.62,0-2.51-.76-2.51-2.07,0-1.62,1.37-2.04,2.57-2.22,1.25-.19,2.42-.11,2.42-1.15,0-.42-.36-1.04-1.52-1.04-.99,0-1.52.43-1.64,1.14h-1.53c.07-1.04.77-2.28,3.15-2.28,2.22,0,3.08,1.12,3.08,2.64v2.9ZM161.84,220.44c0,.65.47,1.04,1.37,1.04,1.36,0,2-.85,2-2.3v-.55c-.42.43-1.27.54-2.11.7-.65.13-1.25.37-1.25,1.11Z"/>
    <path class="st3" d="M172.79,218.11c0-1.32-.47-1.81-1.31-1.81-1.02,0-1.73.76-1.73,2.44v3.66h-1.59v-7.27h1.59v1.25c.23-.57.82-1.43,2.28-1.43,1.04,0,1.81.43,2.14,1.44.29-.64.95-1.44,2.43-1.44s2.42.8,2.42,2.72v4.73h-1.6v-4.3c0-1.32-.46-1.81-1.29-1.81-1.02,0-1.75.76-1.75,2.44v3.66h-1.6v-4.3Z"/>
    <path class="st3" d="M181.72,219.28c.15,1.34.9,2.09,1.93,2.09.73,0,1.31-.37,1.63-.97h1.62c-.49,1.39-1.67,2.19-3.26,2.19-2.27,0-3.52-1.54-3.52-3.77s1.24-3.86,3.5-3.86,3.48,1.51,3.48,3.87c0,.25-.01.46-.01.46h-5.38ZM181.71,218.3h3.8c-.14-1.41-.87-2.12-1.87-2.12-1.06,0-1.8.8-1.93,2.12Z"/>
    <path class="st3" d="M190.56,215.14h1.7v2.07h-1.7v-2.07ZM190.56,220.34h1.7v2.07h-1.7v-2.07Z"/>
  </g>
  <g>
    <path class="st3" d="M102.58,246.64h1.73c-.32,2.43-2.11,4.01-4.48,4.01-2.75,0-4.69-2.12-4.69-5.2s1.93-5.2,4.69-5.2c2.37,0,4.16,1.58,4.48,4.01h-1.73c-.33-1.74-1.56-2.54-2.77-2.54-1.5,0-2.96,1.18-2.96,3.72s1.46,3.72,2.96,3.72c1.21,0,2.44-.8,2.77-2.54Z"/>
    <path class="st3" d="M105.59,240.48h1.6v9.95h-1.6v-9.95Z"/>
    <path class="st3" d="M114.9,248.52c0,1.25.23,1.91.23,1.91h-1.55s-.11-.35-.18-.99c-.42.63-1.17,1.17-2.51,1.17-1.62,0-2.51-.76-2.51-2.07,0-1.62,1.37-2.04,2.57-2.22,1.25-.19,2.42-.11,2.42-1.15,0-.42-.36-1.04-1.52-1.04-.99,0-1.52.43-1.64,1.14h-1.53c.07-1.04.77-2.28,3.15-2.28,2.22,0,3.08,1.12,3.08,2.64v2.9ZM109.99,248.46c0,.65.47,1.04,1.37,1.04,1.36,0,2-.85,2-2.3v-.55c-.42.43-1.27.54-2.11.7-.65.13-1.25.37-1.25,1.11Z"/>
    <path class="st3" d="M116.06,248.29h1.61c0,.76.55,1.17,1.65,1.17s1.62-.46,1.62-1.06c0-.76-.64-.88-1.65-1.06-1.35-.24-3.11-.39-3.11-2.12,0-1.34,1.04-2.26,3.06-2.26s3.15.85,3.15,2.24h-1.55c0-.62-.51-1.1-1.57-1.1-1,0-1.51.42-1.51,1,0,.71.6.81,1.53.97,1.39.24,3.24.38,3.24,2.19,0,1.27-.87,2.33-3.25,2.33s-3.21-.99-3.21-2.31Z"/>
    <path class="st3" d="M123.4,248.29h1.61c0,.76.55,1.17,1.65,1.17s1.62-.46,1.62-1.06c0-.76-.64-.88-1.65-1.06-1.35-.24-3.11-.39-3.11-2.12,0-1.34,1.04-2.26,3.06-2.26s3.15.85,3.15,2.24h-1.55c0-.62-.51-1.1-1.57-1.1-1,0-1.51.42-1.51,1,0,.71.6.81,1.53.97,1.39.24,3.24.38,3.24,2.19,0,1.27-.87,2.33-3.25,2.33s-3.21-.99-3.21-2.31Z"/>
    <path class="st3" d="M135.83,240.48h1.7v8.43h4.97v1.51h-6.67v-9.95Z"/>
    <path class="st3" d="M144.62,247.3c.15,1.34.9,2.09,1.93,2.09.73,0,1.31-.37,1.63-.97h1.62c-.49,1.39-1.67,2.19-3.26,2.19-2.27,0-3.52-1.54-3.52-3.77s1.24-3.86,3.5-3.86,3.48,1.51,3.48,3.87c0,.25-.01.46-.01.46h-5.38ZM144.62,246.32h3.8c-.14-1.41-.87-2.12-1.87-2.12-1.06,0-1.8.8-1.93,2.12Z"/>
    <path class="st3" d="M154.79,250.43h-1.86l-2.75-7.27h1.72l1.96,5.8,1.96-5.8h1.72l-2.75,7.27Z"/>
    <path class="st3" d="M159.3,247.3c.15,1.34.9,2.09,1.93,2.09.73,0,1.31-.37,1.63-.97h1.62c-.49,1.39-1.67,2.19-3.26,2.19-2.27,0-3.52-1.54-3.52-3.77s1.24-3.86,3.5-3.86,3.48,1.51,3.48,3.87c0,.25-.01.46-.01.46h-5.38ZM159.29,246.32h3.8c-.14-1.41-.87-2.12-1.87-2.12-1.06,0-1.8.8-1.93,2.12Z"/>
    <path class="st3" d="M165.87,240.48h1.6v9.95h-1.6v-9.95Z"/>
    <path class="st3" d="M171.28,243.16h1.7v2.07h-1.7v-2.07ZM171.28,248.36h1.7v2.07h-1.7v-2.07Z"/>
  </g>
  <g>
    <path class="st3" d="M102.58,274.66h1.73c-.32,2.43-2.11,4.01-4.48,4.01-2.75,0-4.69-2.12-4.69-5.2s1.93-5.2,4.69-5.2c2.37,0,4.16,1.58,4.48,4.01h-1.73c-.33-1.74-1.56-2.54-2.77-2.54-1.5,0-2.96,1.18-2.96,3.72s1.46,3.72,2.96,3.72c1.21,0,2.44-.8,2.77-2.54Z"/>
    <path class="st3" d="M105.59,268.5h1.6v9.95h-1.6v-9.95Z"/>
    <path class="st3" d="M114.9,276.53c0,1.25.23,1.91.23,1.91h-1.55s-.11-.35-.18-.99c-.42.63-1.17,1.17-2.51,1.17-1.62,0-2.51-.76-2.51-2.07,0-1.62,1.37-2.04,2.57-2.22,1.25-.19,2.42-.11,2.42-1.15,0-.42-.36-1.04-1.52-1.04-.99,0-1.52.43-1.64,1.14h-1.53c.07-1.04.77-2.28,3.15-2.28,2.22,0,3.08,1.12,3.08,2.64v2.9ZM109.99,276.48c0,.65.47,1.04,1.37,1.04,1.36,0,2-.85,2-2.3v-.55c-.42.43-1.27.54-2.11.7-.65.13-1.25.37-1.25,1.11Z"/>
    <path class="st3" d="M116.06,276.31h1.61c0,.76.55,1.17,1.65,1.17s1.62-.46,1.62-1.06c0-.76-.64-.88-1.65-1.06-1.35-.24-3.11-.39-3.11-2.12,0-1.34,1.04-2.26,3.06-2.26s3.15.85,3.15,2.24h-1.55c0-.62-.51-1.1-1.57-1.1-1,0-1.51.42-1.51,1,0,.71.6.81,1.53.97,1.39.24,3.24.38,3.24,2.19,0,1.27-.87,2.33-3.25,2.33s-3.21-.99-3.21-2.31Z"/>
    <path class="st3" d="M123.4,276.31h1.61c0,.76.55,1.17,1.65,1.17s1.62-.46,1.62-1.06c0-.76-.64-.88-1.65-1.06-1.35-.24-3.11-.39-3.11-2.12,0-1.34,1.04-2.26,3.06-2.26s3.15.85,3.15,2.24h-1.55c0-.62-.51-1.1-1.57-1.1-1,0-1.51.42-1.51,1,0,.71.6.81,1.53.97,1.39.24,3.24.38,3.24,2.19,0,1.27-.87,2.33-3.25,2.33s-3.21-.99-3.21-2.31Z"/>
    <path class="st3" d="M138.22,268.5h1.7v8.43h4.97v1.51h-6.67v-9.95Z"/>
    <path class="st3" d="M152.65,274.81c0,2.28-1.34,3.81-3.61,3.81s-3.61-1.53-3.61-3.81,1.34-3.82,3.61-3.82,3.61,1.53,3.61,3.82ZM147.04,274.81c0,1.59.84,2.51,2,2.51s2-.92,2-2.51-.84-2.52-2-2.52-2,.93-2,2.52Z"/>
    <path class="st3" d="M160.46,273.9h-1.62c-.27-.98-.91-1.61-1.79-1.61-1.12,0-1.93.95-1.93,2.52s.81,2.51,1.93,2.51c.89,0,1.55-.62,1.8-1.6h1.61c-.31,1.81-1.65,2.9-3.41,2.9-2.24,0-3.53-1.54-3.53-3.81s1.29-3.82,3.53-3.82c1.88,0,3.1,1.17,3.41,2.91Z"/>
    <path class="st3" d="M167.84,276.53c0,1.25.23,1.91.23,1.91h-1.55s-.11-.35-.18-.99c-.42.63-1.17,1.17-2.51,1.17-1.62,0-2.51-.76-2.51-2.07,0-1.62,1.37-2.04,2.57-2.22,1.25-.19,2.42-.11,2.42-1.15,0-.42-.36-1.04-1.52-1.04-.99,0-1.52.43-1.64,1.14h-1.53c.07-1.04.77-2.28,3.15-2.28,2.22,0,3.08,1.12,3.08,2.64v2.9ZM162.93,276.48c0,.65.47,1.04,1.37,1.04,1.36,0,2-.85,2-2.3v-.55c-.42.43-1.27.54-2.11.7-.65.13-1.25.37-1.25,1.11Z"/>
    <path class="st3" d="M170.05,275.97v-3.48h-1.36v-1.32h1.36v-1.91l1.6-.62v2.53h1.7v1.32h-1.7v3.34c0,1.03.36,1.38,1.09,1.38.32,0,.61-.06.61-.06v1.28s-.64.07-1.11.07c-1.58,0-2.19-.78-2.19-2.53Z"/>
    <path class="st3" d="M176.12,270.12h-1.64v-1.62h1.64v1.62ZM174.5,271.18h1.6v7.27h-1.6v-7.27Z"/>
    <path class="st3" d="M184.52,274.81c0,2.28-1.34,3.81-3.61,3.81s-3.61-1.53-3.61-3.81,1.34-3.82,3.61-3.82,3.61,1.53,3.61,3.82ZM178.91,274.81c0,1.59.84,2.51,2,2.51s2-.92,2-2.51-.84-2.52-2-2.52-2,.93-2,2.52Z"/>
    <path class="st3" d="M190.63,274.21c0-1.39-.54-1.87-1.49-1.87-1.18,0-1.91.82-1.91,2.54v3.57h-1.59v-7.27h1.59v1.3c.28-.71.95-1.48,2.48-1.48s2.51.81,2.51,2.82v4.64h-1.59v-4.24Z"/>
    <path class="st3" d="M195.95,271.18h1.7v2.07h-1.7v-2.07ZM195.95,276.38h1.7v2.07h-1.7v-2.07Z"/>
  </g>
  <g>
    <path class="st3" d="M102.18,586.54h1.73c-.32,2.43-2.11,4.01-4.48,4.01-2.75,0-4.69-2.12-4.69-5.2s1.93-5.2,4.69-5.2c2.37,0,4.16,1.58,4.48,4.01h-1.73c-.33-1.74-1.56-2.54-2.77-2.54-1.5,0-2.96,1.18-2.96,3.72s1.46,3.72,2.96,3.72c1.21,0,2.44-.8,2.77-2.54Z"/>
    <path class="st3" d="M112.07,586.69c0,2.28-1.34,3.81-3.61,3.81s-3.61-1.53-3.61-3.81,1.34-3.82,3.61-3.82,3.61,1.53,3.61,3.82ZM106.46,586.69c0,1.59.84,2.51,2,2.51s2-.92,2-2.51-.84-2.52-2-2.52-2,.93-2,2.52Z"/>
    <path class="st3" d="M117.81,586.03c0-1.32-.47-1.81-1.31-1.81-1.02,0-1.73.76-1.73,2.44v3.66h-1.59v-7.27h1.59v1.25c.23-.57.82-1.43,2.28-1.43,1.04,0,1.81.43,2.14,1.44.29-.64.95-1.44,2.43-1.44s2.42.8,2.42,2.72v4.73h-1.6v-4.3c0-1.32-.46-1.81-1.29-1.81-1.02,0-1.75.76-1.75,2.44v3.66h-1.6v-4.3Z"/>
    <path class="st3" d="M130.06,586.03c0-1.32-.47-1.81-1.31-1.81-1.02,0-1.73.76-1.73,2.44v3.66h-1.59v-7.27h1.59v1.25c.23-.57.82-1.43,2.28-1.43,1.04,0,1.81.43,2.14,1.44.29-.64.95-1.44,2.43-1.44s2.42.8,2.42,2.72v4.73h-1.6v-4.3c0-1.32-.46-1.81-1.29-1.81-1.02,0-1.75.76-1.75,2.44v3.66h-1.6v-4.3Z"/>
    <path class="st3" d="M138.98,587.2c.15,1.34.9,2.09,1.93,2.09.73,0,1.31-.37,1.63-.97h1.62c-.49,1.39-1.67,2.19-3.26,2.19-2.27,0-3.52-1.54-3.52-3.77s1.24-3.86,3.5-3.86,3.48,1.51,3.48,3.87c0,.25-.01.46-.01.46h-5.38ZM138.97,586.22h3.8c-.14-1.42-.87-2.12-1.87-2.12-1.06,0-1.8.8-1.93,2.12Z"/>
    <path class="st3" d="M150.47,586.09c0-1.39-.54-1.87-1.49-1.87-1.18,0-1.91.82-1.91,2.54v3.57h-1.59v-7.27h1.59v1.3c.28-.71.95-1.48,2.48-1.48s2.51.81,2.51,2.82v4.64h-1.59v-4.24Z"/>
    <path class="st3" d="M154.2,587.86v-3.48h-1.36v-1.32h1.36v-1.91l1.6-.62v2.53h1.7v1.32h-1.7v3.34c0,1.03.36,1.38,1.09,1.38.32,0,.61-.06.61-.06v1.28s-.64.07-1.11.07c-1.58,0-2.19-.78-2.19-2.53Z"/>
    <path class="st3" d="M158.41,588.19h1.61c0,.76.55,1.17,1.65,1.17s1.62-.46,1.62-1.06c0-.76-.64-.88-1.65-1.06-1.35-.24-3.11-.39-3.11-2.12,0-1.34,1.04-2.25,3.06-2.25s3.15.85,3.15,2.24h-1.55c0-.62-.51-1.1-1.57-1.1-1,0-1.51.42-1.51,1,0,.71.6.81,1.53.97,1.39.24,3.24.38,3.24,2.19,0,1.27-.87,2.33-3.25,2.33s-3.21-.99-3.21-2.31Z"/>
    <path class="st3" d="M165.97,583.06h1.7v2.07h-1.7v-2.07ZM165.97,588.26h1.7v2.07h-1.7v-2.07Z"/>
  </g>
  <g>
    <path class="st3" d="M273.95,718.93h6.94v1.29h-2.74v7.22h-1.46v-7.22h-2.74v-1.29Z"/>
    <path class="st3" d="M281.92,724.76c.13,1.15.77,1.79,1.65,1.79.62,0,1.12-.32,1.4-.83h1.39c-.42,1.19-1.43,1.88-2.79,1.88-1.94,0-3.02-1.32-3.02-3.23s1.06-3.3,3-3.3,2.98,1.29,2.98,3.31c0,.21-.01.39-.01.39h-4.61ZM281.92,723.92h3.26c-.12-1.21-.74-1.82-1.6-1.82-.91,0-1.54.68-1.66,1.82Z"/>
    <path class="st3" d="M292.84,725.81c0,1.07.2,1.64.2,1.64h-1.33s-.1-.3-.15-.85c-.36.54-1,1-2.15,1-1.39,0-2.15-.65-2.15-1.77,0-1.39,1.17-1.75,2.2-1.9,1.07-.16,2.07-.1,2.07-.98,0-.36-.31-.89-1.3-.89-.85,0-1.3.37-1.4.98h-1.31c.06-.89.66-1.96,2.69-1.96,1.9,0,2.64.96,2.64,2.26v2.48ZM288.64,725.76c0,.56.4.89,1.17.89,1.16,0,1.71-.73,1.71-1.97v-.47c-.36.37-1.09.46-1.81.6-.56.11-1.07.32-1.07.95Z"/>
    <path class="st3" d="M299.76,723.55h-1.39c-.23-.84-.78-1.38-1.54-1.38-.96,0-1.65.81-1.65,2.16s.69,2.15,1.66,2.15c.76,0,1.33-.53,1.54-1.37h1.38c-.26,1.55-1.42,2.48-2.92,2.48-1.92,0-3.02-1.32-3.02-3.26s1.1-3.27,3.02-3.27c1.61,0,2.65,1,2.92,2.49Z"/>
    <path class="st3" d="M305.03,723.82c0-1.19-.48-1.6-1.29-1.6-1.01,0-1.64.7-1.64,2.17v3.06h-1.36v-8.52h1.36v3.41c.24-.61.82-1.28,2.13-1.28s2.17.69,2.17,2.41v3.97h-1.36v-3.63Z"/>
    <path class="st3" d="M308.71,724.76c.13,1.15.77,1.79,1.65,1.79.62,0,1.12-.32,1.4-.83h1.39c-.42,1.19-1.43,1.88-2.79,1.88-1.94,0-3.02-1.32-3.02-3.23s1.06-3.3,3-3.3,2.98,1.29,2.98,3.31c0,.21-.01.39-.01.39h-4.61ZM308.7,723.92h3.26c-.12-1.21-.74-1.82-1.6-1.82-.91,0-1.54.68-1.66,1.82Z"/>
    <path class="st3" d="M318.14,721.21v1.17s-.26-.07-.61-.07c-1.13,0-1.89.64-1.89,2.54v2.59h-1.36v-6.22h1.36v1.13c.2-.49.69-1.21,1.88-1.21.4,0,.62.06.62.06Z"/>
    <path class="st3" d="M318.94,721.22h1.46v1.77h-1.46v-1.77ZM318.94,725.68h1.46v1.77h-1.46v-1.77Z"/>
  </g>
  <g>
    <path class="st3" d="M274.21,745.52v-8.51h3c2.48,0,4.07,1.62,4.07,4.26s-1.58,4.26-4.07,4.26h-3ZM275.66,744.24h1.52c1.4,0,2.63-.83,2.63-2.98s-1.24-2.99-2.63-2.99h-1.52v5.97Z"/>
    <path class="st3" d="M287.46,743.88c0,1.07.2,1.64.2,1.64h-1.33s-.1-.3-.15-.85c-.36.54-1,1-2.15,1-1.39,0-2.15-.65-2.15-1.78,0-1.39,1.17-1.75,2.2-1.9,1.07-.16,2.07-.1,2.07-.98,0-.36-.31-.89-1.3-.89-.85,0-1.3.37-1.4.98h-1.31c.06-.89.66-1.95,2.69-1.95,1.9,0,2.64.96,2.64,2.26v2.48ZM283.25,743.83c0,.56.4.89,1.17.89,1.16,0,1.71-.73,1.71-1.97v-.47c-.36.37-1.09.46-1.81.6-.56.11-1.07.32-1.07.95Z"/>
    <path class="st3" d="M289.36,743.4v-2.98h-1.16v-1.13h1.16v-1.64l1.37-.53v2.16h1.46v1.13h-1.46v2.86c0,.88.31,1.18.94,1.18.28,0,.52-.05.52-.05v1.1s-.55.06-.95.06c-1.35,0-1.88-.67-1.88-2.16Z"/>
    <path class="st3" d="M294.24,742.84c.13,1.15.77,1.79,1.65,1.79.62,0,1.12-.32,1.4-.83h1.39c-.42,1.19-1.43,1.88-2.79,1.88-1.94,0-3.02-1.32-3.02-3.23s1.06-3.3,3-3.3,2.98,1.29,2.98,3.31c0,.21-.01.39-.01.39h-4.61ZM294.23,742h3.26c-.12-1.21-.74-1.82-1.6-1.82-.91,0-1.54.68-1.66,1.82Z"/>
    <path class="st3" d="M299.77,739.29h1.46v1.77h-1.46v-1.77ZM299.77,743.75h1.46v1.77h-1.46v-1.77Z"/>
  </g>
  <g>
    <path class="st12" d="M456.07,784.01c.48.46.74.99.8,1.57h-.91c-.1-.45-.3-.8-.61-1.06-.3-.26-.73-.39-1.28-.39-.67,0-1.21.24-1.62.72s-.62,1.21-.62,2.21c0,.81.19,1.47.56,1.97s.93.76,1.67.76c.68,0,1.2-.27,1.55-.8.19-.28.33-.65.42-1.1h.91c-.08.73-.35,1.34-.8,1.83-.54.59-1.28.89-2.2.89-.79,0-1.46-.24-2-.73-.71-.64-1.07-1.64-1.07-2.99,0-1.02.27-1.86.8-2.51.58-.71,1.37-1.07,2.39-1.07.87,0,1.54.23,2.02.69Z"/>
    <path class="st12" d="M461.69,785.89c.45.43.67,1.07.67,1.91s-.2,1.49-.59,2.02c-.39.53-1,.8-1.83.8-.69,0-1.24-.23-1.64-.7-.41-.47-.61-1.1-.61-1.89,0-.85.21-1.52.64-2.02.43-.5,1-.75,1.72-.75.65,0,1.19.22,1.64.65ZM461.16,789.24c.21-.42.31-.9.31-1.42,0-.47-.08-.85-.22-1.15-.24-.46-.64-.7-1.22-.7-.51,0-.89.2-1.12.59-.23.4-.35.87-.35,1.43s.12.98.35,1.34c.23.36.6.54,1.11.54.56,0,.94-.21,1.14-.64Z"/>
    <path class="st12" d="M463.4,785.38h.81v.72c.24-.29.49-.51.76-.64.27-.13.56-.19.89-.19.72,0,1.2.25,1.45.75.14.27.21.67.21,1.17v3.24h-.86v-3.18c0-.31-.04-.56-.14-.75-.15-.31-.42-.47-.82-.47-.2,0-.37.02-.5.06-.23.07-.44.21-.61.41-.14.17-.23.34-.28.52s-.06.43-.06.76v2.64h-.85v-5.05Z"/>
    <path class="st12" d="M468.94,783.98h.86v1.41h.81v.69h-.81v3.29c0,.18.06.29.18.35.07.03.18.05.33.05.04,0,.08,0,.13,0,.05,0,.1,0,.17-.02v.67c-.1.03-.2.05-.3.06s-.22.02-.34.02c-.4,0-.66-.1-.81-.3-.14-.2-.21-.47-.21-.79v-3.34h-.68v-.69h.68v-1.41Z"/>
    <path class="st12" d="M474.16,787.38c.19-.03.33-.11.39-.25.04-.08.06-.18.06-.33,0-.29-.1-.5-.31-.63-.21-.13-.5-.2-.88-.2-.44,0-.76.12-.94.36-.1.13-.17.33-.2.59h-.79c.02-.62.22-1.06.61-1.3.39-.24.84-.37,1.35-.37.59,0,1.07.11,1.45.34.37.23.55.58.55,1.06v2.91c0,.09.02.16.05.21.04.05.11.08.23.08.04,0,.08,0,.13,0,.05,0,.1-.01.15-.02v.63c-.13.04-.23.06-.3.07-.07,0-.16.01-.28.01-.29,0-.5-.1-.64-.31-.07-.11-.12-.27-.15-.47-.17.23-.42.42-.74.59-.32.17-.68.25-1.07.25-.47,0-.85-.14-1.15-.43-.3-.28-.45-.64-.45-1.07,0-.47.15-.83.44-1.09.29-.26.67-.42,1.15-.48l1.35-.17ZM472.37,789.67c.18.14.39.21.64.21.3,0,.59-.07.87-.21.47-.23.71-.6.71-1.12v-.68c-.1.07-.24.12-.4.17-.16.04-.32.08-.48.09l-.51.07c-.31.04-.54.11-.69.19-.26.15-.39.38-.39.71,0,.25.09.44.27.58Z"/>
    <path class="st12" d="M480.16,785.65c.36.28.57.75.64,1.43h-.83c-.05-.31-.17-.57-.34-.78-.18-.21-.47-.31-.86-.31-.54,0-.93.26-1.16.79-.15.34-.23.76-.23,1.27s.11.93.32,1.28c.21.35.55.52,1.01.52.35,0,.63-.11.84-.32.21-.21.35-.51.43-.88h.83c-.09.67-.33,1.16-.71,1.47s-.86.46-1.45.46c-.66,0-1.19-.24-1.58-.72s-.59-1.08-.59-1.81c0-.89.21-1.58.65-2.07s.98-.74,1.64-.74c.57,0,1.03.14,1.39.42Z"/>
    <path class="st12" d="M481.82,783.98h.86v1.41h.81v.69h-.81v3.29c0,.18.06.29.18.35.07.03.18.05.33.05.04,0,.08,0,.13,0,.05,0,.1,0,.17-.02v.67c-.1.03-.2.05-.3.06s-.22.02-.34.02c-.4,0-.66-.1-.81-.3-.14-.2-.21-.47-.21-.79v-3.34h-.68v-.69h.68v-1.41Z"/>
    <path class="st12" d="M484.78,785.45h.98v1.03h-.98v-1.03ZM484.78,789.41h.98v1.03h-.98v-1.03Z"/>
    <path class="st12" d="M493.58,784.76c.3.56.45,1.32.45,2.29,0,.92-.14,1.68-.41,2.28-.4.86-1.04,1.29-1.94,1.29-.81,0-1.41-.35-1.81-1.06-.33-.59-.5-1.38-.5-2.37,0-.77.1-1.42.3-1.97.37-1.02,1.04-1.54,2.01-1.54.87,0,1.5.36,1.89,1.08ZM492.72,789.26c.26-.39.39-1.12.39-2.18,0-.77-.09-1.4-.28-1.89-.19-.49-.56-.74-1.1-.74-.5,0-.87.24-1.1.71-.23.47-.35,1.16-.35,2.08,0,.69.07,1.24.22,1.66.23.64.61.96,1.16.96.44,0,.79-.2,1.05-.58Z"/>
    <path class="st12" d="M497.64,790.43v-1.65h-2.96v-.83l3.09-4.29h.72v4.38h.99v.74h-.99v1.65h-.85ZM497.63,788.04v-3.07l-2.16,3.07h2.16Z"/>
    <path class="st12" d="M504.86,783.8v.74c-.22.21-.5.58-.86,1.1-.36.52-.68,1.08-.96,1.69-.27.59-.48,1.12-.62,1.61-.09.31-.21.81-.35,1.5h-.94c.21-1.29.68-2.57,1.41-3.85.43-.75.88-1.39,1.36-1.94h-3.73v-.85h4.69Z"/>
    <path class="st12" d="M506.1,786.48c-.25-.25-.37-.58-.37-.98,0-.5.18-.93.55-1.3s.88-.54,1.55-.54,1.15.17,1.52.51.55.74.55,1.19c0,.42-.11.76-.32,1.02-.12.15-.3.29-.56.43.28.13.5.28.66.44.3.31.45.72.45,1.23,0,.59-.2,1.1-.6,1.51s-.96.62-1.69.62c-.66,0-1.21-.18-1.67-.54s-.68-.87-.68-1.55c0-.4.1-.74.29-1.04.19-.29.48-.51.87-.67-.24-.1-.42-.22-.55-.35ZM508.83,789.54c.26-.21.39-.53.39-.95s-.13-.77-.4-.99c-.27-.23-.61-.34-1.03-.34s-.74.12-.99.35c-.26.23-.38.55-.38.96,0,.35.12.66.35.91s.6.38,1.09.38c.39,0,.72-.11.98-.32ZM508.67,786.2c.21-.21.32-.46.32-.75,0-.25-.1-.48-.3-.69-.2-.21-.51-.32-.92-.32s-.7.11-.88.32c-.18.21-.27.46-.27.74,0,.32.12.57.35.75.24.18.51.27.83.27.37,0,.67-.1.88-.31Z"/>
    <path class="st12" d="M514.42,788.71c.06.48.28.82.67,1,.2.09.43.14.7.14.5,0,.88-.16,1.12-.48.24-.32.36-.68.36-1.07,0-.47-.14-.84-.43-1.09-.29-.26-.63-.39-1.04-.39-.29,0-.54.06-.75.17s-.39.27-.54.47l-.73-.04.51-3.63h3.51v.82h-2.87l-.29,1.88c.16-.12.31-.21.45-.27.25-.1.54-.16.87-.16.62,0,1.14.2,1.57.6.43.4.65.9.65,1.52s-.2,1.2-.59,1.69c-.39.49-1.02.73-1.89.73-.55,0-1.04-.16-1.46-.46s-.66-.78-.71-1.43h.88Z"/>
    <path class="st12" d="M523,784.24c.3.39.45.79.45,1.21h-.84c-.05-.27-.13-.48-.24-.63-.2-.28-.51-.42-.93-.42-.47,0-.85.22-1.13.66-.28.44-.43,1.07-.47,1.88.2-.29.44-.5.74-.64.27-.13.57-.19.91-.19.57,0,1.06.18,1.48.54.42.36.63.9.63,1.62,0,.61-.2,1.16-.6,1.63-.4.47-.97.71-1.71.71-.63,0-1.18-.24-1.64-.72-.46-.48-.69-1.29-.69-2.42,0-.84.1-1.55.31-2.13.39-1.12,1.11-1.68,2.15-1.68.75,0,1.28.2,1.58.59ZM522.36,789.4c.22-.3.33-.65.33-1.06,0-.35-.1-.67-.3-.99s-.56-.47-1.08-.47c-.36,0-.68.12-.96.36-.28.24-.41.61-.41,1.09,0,.43.12.79.38,1.08s.6.44,1.04.44.78-.15,1-.45Z"/>
    <path class="st12" d="M524.63,788.92c.21-.43.62-.82,1.22-1.17l.9-.52c.41-.24.69-.44.85-.6.26-.26.39-.56.39-.9,0-.39-.12-.71-.35-.94-.24-.23-.55-.35-.94-.35-.58,0-.98.22-1.21.66-.12.24-.19.56-.2.98h-.86c0-.59.12-1.07.33-1.44.37-.65,1.02-.98,1.95-.98.77,0,1.34.21,1.69.63.36.42.54.88.54,1.4,0,.54-.19,1-.57,1.39-.22.22-.61.49-1.18.81l-.65.36c-.31.17-.55.33-.73.49-.31.27-.51.58-.59.91h3.69v.8h-4.63c.03-.58.15-1.09.36-1.52Z"/>
    <path class="st12" d="M532.93,786.48c-.25-.25-.37-.58-.37-.98,0-.5.18-.93.55-1.3s.88-.54,1.55-.54,1.15.17,1.52.51.55.74.55,1.19c0,.42-.11.76-.32,1.02-.12.15-.3.29-.56.43.28.13.5.28.66.44.3.31.45.72.45,1.23,0,.59-.2,1.1-.6,1.51s-.96.62-1.69.62c-.66,0-1.21-.18-1.67-.54s-.68-.87-.68-1.55c0-.4.1-.74.29-1.04.19-.29.48-.51.87-.67-.24-.1-.42-.22-.55-.35ZM535.67,789.54c.26-.21.39-.53.39-.95s-.13-.77-.4-.99c-.27-.23-.61-.34-1.03-.34s-.74.12-.99.35c-.26.23-.38.55-.38.96,0,.35.12.66.35.91s.6.38,1.09.38c.39,0,.72-.11.98-.32ZM535.51,786.2c.21-.21.32-.46.32-.75,0-.25-.1-.48-.3-.69-.2-.21-.51-.32-.92-.32s-.7.11-.88.32c-.18.21-.27.46-.27.74,0,.32.12.57.35.75.24.18.51.27.83.27.37,0,.67-.1.88-.31Z"/>
    <path class="st12" d="M538.58,788.71c.06.48.28.82.67,1,.2.09.43.14.7.14.5,0,.88-.16,1.12-.48.24-.32.36-.68.36-1.07,0-.47-.14-.84-.43-1.09-.29-.26-.63-.39-1.04-.39-.29,0-.54.06-.75.17s-.39.27-.54.47l-.73-.04.51-3.63h3.51v.82h-2.87l-.29,1.88c.16-.12.31-.21.45-.27.25-.1.54-.16.87-.16.62,0,1.14.2,1.57.6.43.4.65.9.65,1.52s-.2,1.2-.59,1.69c-.39.49-1.02.73-1.89.73-.55,0-1.04-.16-1.46-.46s-.66-.78-.71-1.43h.88Z"/>
    <path class="st12" d="M543.52,789.96c-.36-.44-.54-.97-.54-1.6h.89c.04.44.12.75.25.95.22.36.62.53,1.19.53.45,0,.8-.12,1.07-.36.27-.24.41-.55.41-.92,0-.46-.14-.79-.43-.98-.29-.19-.68-.28-1.19-.28-.06,0-.11,0-.17,0-.06,0-.12,0-.18,0v-.75c.09,0,.16.02.22.02.06,0,.12,0,.19,0,.32,0,.58-.05.78-.15.36-.18.54-.49.54-.94,0-.34-.12-.6-.36-.78-.24-.18-.52-.27-.83-.27-.57,0-.96.19-1.17.57-.12.21-.19.5-.2.89h-.84c0-.5.1-.93.3-1.28.35-.63.95-.94,1.82-.94.69,0,1.22.15,1.6.46.38.31.57.75.57,1.33,0,.42-.11.75-.33,1.01-.14.16-.32.29-.54.38.35.1.63.29.83.56.2.28.3.62.3,1.02,0,.64-.21,1.17-.64,1.57-.42.41-1.03.61-1.8.61s-1.38-.22-1.74-.66Z"/>
  </g>
  <g>
    <path class="st12" d="M426.33,795.48h5.02v.85h-4.11v2.1h3.8v.8h-3.8v2.35h4.18v.83h-5.09v-6.92Z"/>
    <path class="st12" d="M432.57,797.35h.84v.72c.2-.25.38-.43.55-.54.28-.19.6-.29.95-.29.4,0,.73.1.97.3.14.11.26.28.38.5.19-.27.41-.47.67-.6.25-.13.54-.2.86-.2.68,0,1.14.25,1.39.74.13.26.2.62.2,1.07v3.36h-.88v-3.51c0-.34-.08-.57-.25-.69-.17-.13-.37-.19-.61-.19-.33,0-.62.11-.86.33-.24.22-.36.6-.36,1.12v2.94h-.86v-3.29c0-.34-.04-.59-.12-.75-.13-.24-.37-.35-.72-.35-.32,0-.61.12-.87.37s-.39.7-.39,1.35v2.68h-.85v-5.05Z"/>
    <path class="st12" d="M443.32,799.35c.19-.03.33-.11.39-.25.04-.08.06-.18.06-.33,0-.29-.1-.5-.31-.63-.21-.13-.5-.2-.88-.2-.44,0-.76.12-.94.36-.1.13-.17.33-.2.59h-.79c.02-.62.22-1.06.61-1.3.39-.24.84-.37,1.35-.37.59,0,1.07.11,1.45.34.37.23.55.58.55,1.06v2.91c0,.09.02.16.05.21.04.05.11.08.23.08.04,0,.08,0,.13,0,.05,0,.1-.01.15-.02v.63c-.13.04-.23.06-.3.07-.07,0-.16.01-.28.01-.29,0-.5-.1-.64-.31-.07-.11-.12-.27-.15-.47-.17.23-.42.42-.74.59-.32.17-.68.25-1.07.25-.47,0-.85-.14-1.15-.43-.3-.28-.45-.64-.45-1.07,0-.47.15-.83.44-1.09.29-.26.67-.42,1.15-.48l1.35-.17ZM441.53,801.64c.18.14.39.21.64.21.3,0,.59-.07.87-.21.47-.23.71-.6.71-1.12v-.68c-.1.07-.24.12-.4.17-.16.04-.32.08-.48.09l-.51.07c-.31.04-.54.11-.69.19-.26.15-.39.38-.39.71,0,.25.09.44.27.58Z"/>
    <path class="st12" d="M445.98,795.48h.86v.96h-.86v-.96ZM445.98,797.38h.86v5.02h-.86v-5.02Z"/>
    <path class="st12" d="M448.15,795.48h.85v6.92h-.85v-6.92Z"/>
    <path class="st12" d="M450.72,797.42h.98v1.03h-.98v-1.03ZM450.72,801.38h.98v1.03h-.98v-1.03Z"/>
    <path class="st12" d="M455.63,795.48h.86v.96h-.86v-.96ZM455.63,797.38h.86v5.02h-.86v-5.02Z"/>
    <path class="st12" d="M457.78,797.35h.81v.72c.24-.29.49-.51.76-.64.27-.13.56-.19.89-.19.72,0,1.2.25,1.45.75.14.27.21.67.21,1.17v3.24h-.86v-3.18c0-.31-.04-.56-.14-.75-.15-.31-.42-.47-.82-.47-.2,0-.37.02-.5.06-.23.07-.44.21-.61.41-.14.17-.23.34-.28.52s-.06.43-.06.76v2.64h-.85v-5.05Z"/>
    <path class="st12" d="M463.54,795.81c.2-.29.58-.43,1.14-.43.05,0,.11,0,.17,0s.12,0,.19.01v.77c-.09,0-.15,0-.19-.01-.04,0-.08,0-.11,0-.26,0-.42.07-.47.2-.05.13-.08.47-.08,1.02h.85v.67h-.85v4.36h-.84v-4.36h-.7v-.67h.7v-.79c.01-.35.07-.61.18-.77Z"/>
    <path class="st12" d="M469.49,797.86c.45.43.67,1.07.67,1.91s-.2,1.49-.59,2.02c-.39.53-1,.8-1.83.8-.69,0-1.24-.23-1.64-.7-.41-.47-.61-1.1-.61-1.89,0-.85.21-1.52.64-2.02.43-.5,1-.75,1.72-.75.65,0,1.19.22,1.64.65ZM468.96,801.21c.21-.42.31-.9.31-1.42,0-.47-.08-.85-.22-1.15-.24-.46-.64-.7-1.22-.7-.51,0-.89.2-1.12.59-.23.4-.35.87-.35,1.43s.12.98.35,1.34c.23.36.6.54,1.11.54.56,0,.94-.21,1.14-.64Z"/>
    <path class="st12" d="M472.49,801.38c-.57-.66-.85-1.42-.85-2.28,0-1.02.35-1.9,1.04-2.61.77-.8,1.8-1.2,3.09-1.2,1.12,0,2,.28,2.64.85.6.54.9,1.23.9,2.08,0,.72-.21,1.33-.64,1.84s-.91.76-1.44.76c-.31,0-.54-.07-.69-.22s-.22-.33-.22-.54c0-.04,0-.07,0-.11,0-.04.01-.08.02-.12-.17.36-.38.62-.63.77-.25.15-.52.22-.79.22-.39,0-.7-.14-.94-.42s-.36-.64-.36-1.08c0-.63.21-1.18.62-1.66.41-.48.85-.72,1.32-.72.32,0,.58.09.79.28.21.18.32.41.33.67l.24-.79h.69l-.63,2.06c-.05.16-.08.29-.1.39-.02.1-.03.18-.03.26,0,.14.04.25.13.31.09.06.18.1.29.1.36,0,.68-.19.96-.56.28-.37.43-.86.43-1.47,0-.73-.25-1.3-.76-1.72-.51-.42-1.19-.62-2.05-.62-1.19,0-2.11.35-2.74,1.05-.54.59-.81,1.34-.81,2.24,0,.79.26,1.45.77,1.98.6.63,1.46.95,2.58.95.52,0,1.01-.08,1.46-.25s.86-.39,1.23-.67l.31.42c-.28.25-.71.49-1.27.71-.56.22-1.18.33-1.86.33-1.31,0-2.33-.41-3.04-1.23ZM476.26,797.67c-.13-.16-.31-.23-.54-.23-.36,0-.67.21-.93.63-.26.42-.39.84-.39,1.26,0,.31.07.54.2.71.14.16.3.24.51.24.42,0,.75-.25.99-.74s.36-.94.36-1.34c0-.2-.07-.37-.2-.53Z"/>
    <path class="st12" d="M481,797.35h.81v.72c.24-.29.49-.51.76-.64.27-.13.56-.19.89-.19.72,0,1.2.25,1.45.75.14.27.21.67.21,1.17v3.24h-.86v-3.18c0-.31-.04-.56-.14-.75-.15-.31-.42-.47-.82-.47-.2,0-.37.02-.5.06-.23.07-.44.21-.61.41-.14.17-.23.34-.28.52s-.06.43-.06.76v2.64h-.85v-5.05Z"/>
    <path class="st12" d="M489.48,797.49c.33.17.59.39.76.65.17.25.28.55.34.89.05.23.08.6.08,1.11h-3.67c.02.51.14.93.36,1.24.22.31.57.46,1.04.46.44,0,.79-.15,1.05-.44.15-.17.25-.37.31-.59h.83c-.02.19-.1.39-.22.62s-.26.41-.42.56c-.26.25-.57.42-.95.51-.2.05-.43.08-.69.08-.62,0-1.15-.23-1.59-.69-.43-.46-.65-1.1-.65-1.92s.22-1.47.66-1.97c.44-.51,1.01-.76,1.71-.76.36,0,.7.08,1.04.25ZM489.79,799.48c-.03-.37-.11-.66-.24-.88-.23-.41-.62-.61-1.15-.61-.39,0-.71.14-.97.42s-.4.64-.42,1.07h2.78Z"/>
    <path class="st12" d="M492.13,797.35l.97,3.98.99-3.98h.95l.99,3.95,1.03-3.95h.85l-1.47,5.05h-.88l-1.03-3.91-1,3.91h-.88l-1.46-5.05h.93Z"/>
    <path class="st12" d="M499.21,800.82c.03.28.1.5.22.65.22.27.6.41,1.14.41.32,0,.6-.07.85-.21.24-.14.37-.35.37-.63,0-.22-.1-.38-.29-.5-.12-.07-.37-.15-.74-.24l-.69-.17c-.44-.11-.76-.23-.97-.36-.37-.23-.56-.55-.56-.95,0-.48.17-.86.52-1.16.35-.29.82-.44,1.41-.44.77,0,1.33.22,1.67.67.21.28.32.59.31.91h-.8c-.02-.19-.08-.36-.21-.52-.2-.22-.55-.33-1.04-.33-.33,0-.58.06-.75.18s-.25.28-.25.48c0,.22.11.39.33.53.13.08.32.15.57.21l.57.14c.62.15,1.04.29,1.25.43.33.22.49.56.49,1.02s-.17.84-.52,1.16c-.34.33-.87.49-1.58.49-.76,0-1.3-.17-1.62-.51s-.49-.76-.51-1.27h.82Z"/>
    <path class="st12" d="M503.7,795.95h.86v1.41h.81v.69h-.81v3.29c0,.18.06.29.18.35.07.03.18.05.33.05.04,0,.08,0,.13,0,.05,0,.1,0,.17-.02v.67c-.1.03-.2.05-.3.06s-.22.02-.34.02c-.4,0-.66-.1-.81-.3-.14-.2-.21-.47-.21-.79v-3.34h-.68v-.69h.68v-1.41Z"/>
    <path class="st12" d="M508.92,799.35c.19-.03.33-.11.39-.25.04-.08.06-.18.06-.33,0-.29-.1-.5-.31-.63-.21-.13-.5-.2-.88-.2-.44,0-.76.12-.94.36-.1.13-.17.33-.2.59h-.79c.02-.62.22-1.06.61-1.3.39-.24.84-.37,1.35-.37.59,0,1.07.11,1.45.34.37.23.55.58.55,1.06v2.91c0,.09.02.16.05.21.04.05.11.08.23.08.04,0,.08,0,.13,0,.05,0,.1-.01.15-.02v.63c-.13.04-.23.06-.3.07-.07,0-.16.01-.28.01-.29,0-.5-.1-.64-.31-.07-.11-.12-.27-.15-.47-.17.23-.42.42-.74.59-.32.17-.68.25-1.07.25-.47,0-.85-.14-1.15-.43-.3-.28-.45-.64-.45-1.07,0-.47.15-.83.44-1.09.29-.26.67-.42,1.15-.48l1.35-.17ZM507.13,801.64c.18.14.39.21.64.21.3,0,.59-.07.87-.21.47-.23.71-.6.71-1.12v-.68c-.1.07-.24.12-.4.17-.16.04-.32.08-.48.09l-.51.07c-.31.04-.54.11-.69.19-.26.15-.39.38-.39.71,0,.25.09.44.27.58Z"/>
    <path class="st12" d="M511.61,797.35h.81v.87c.07-.17.23-.38.49-.62s.55-.37.89-.37c.02,0,.04,0,.08,0s.1,0,.19.02v.9c-.05,0-.1-.02-.14-.02-.04,0-.09,0-.14,0-.43,0-.76.14-.99.41-.23.28-.34.59-.34.95v2.9h-.85v-5.05Z"/>
    <path class="st12" d="M514.97,795.95h.86v1.41h.81v.69h-.81v3.29c0,.18.06.29.18.35.07.03.18.05.33.05.04,0,.08,0,.13,0,.05,0,.1,0,.17-.02v.67c-.1.03-.2.05-.3.06s-.22.02-.34.02c-.4,0-.66-.1-.81-.3-.14-.2-.21-.47-.21-.79v-3.34h-.68v-.69h.68v-1.41Z"/>
    <path class="st12" d="M520.18,799.35c.19-.03.33-.11.39-.25.04-.08.06-.18.06-.33,0-.29-.1-.5-.31-.63-.21-.13-.5-.2-.88-.2-.44,0-.76.12-.94.36-.1.13-.17.33-.2.59h-.79c.02-.62.22-1.06.61-1.3.39-.24.84-.37,1.35-.37.59,0,1.07.11,1.45.34.37.23.55.58.55,1.06v2.91c0,.09.02.16.05.21.04.05.11.08.23.08.04,0,.08,0,.13,0,.05,0,.1-.01.15-.02v.63c-.13.04-.23.06-.3.07-.07,0-.16.01-.28.01-.29,0-.5-.1-.64-.31-.07-.11-.12-.27-.15-.47-.17.23-.42.42-.74.59-.32.17-.68.25-1.07.25-.47,0-.85-.14-1.15-.43-.3-.28-.45-.64-.45-1.07,0-.47.15-.83.44-1.09.29-.26.67-.42,1.15-.48l1.35-.17ZM518.4,801.64c.18.14.39.21.64.21.3,0,.59-.07.87-.21.47-.23.71-.6.71-1.12v-.68c-.1.07-.24.12-.4.17-.16.04-.32.08-.48.09l-.51.07c-.31.04-.54.11-.69.19-.26.15-.39.38-.39.71,0,.25.09.44.27.58Z"/>
    <path class="st12" d="M522.87,797.35h.81v.87c.07-.17.23-.38.49-.62s.55-.37.89-.37c.02,0,.04,0,.08,0s.1,0,.19.02v.9c-.05,0-.1-.02-.14-.02-.04,0-.09,0-.14,0-.43,0-.76.14-.99.41-.23.28-.34.59-.34.95v2.9h-.85v-5.05Z"/>
    <path class="st12" d="M526.23,795.95h.86v1.41h.81v.69h-.81v3.29c0,.18.06.29.18.35.07.03.18.05.33.05.04,0,.08,0,.13,0,.05,0,.1,0,.17-.02v.67c-.1.03-.2.05-.3.06s-.22.02-.34.02c-.4,0-.66-.1-.81-.3-.14-.2-.21-.47-.21-.79v-3.34h-.68v-.69h.68v-1.41Z"/>
    <path class="st12" d="M528.95,801.38h.98v1.03h-.98v-1.03Z"/>
    <path class="st12" d="M534.76,797.62c.36.28.57.75.64,1.43h-.83c-.05-.31-.17-.57-.34-.78-.18-.21-.47-.31-.86-.31-.54,0-.93.26-1.16.79-.15.34-.23.76-.23,1.27s.11.93.32,1.28c.21.35.55.52,1.01.52.35,0,.63-.11.84-.32.21-.21.35-.51.43-.88h.83c-.09.67-.33,1.16-.71,1.47s-.86.46-1.45.46c-.66,0-1.19-.24-1.58-.72s-.59-1.08-.59-1.81c0-.89.21-1.58.65-2.07s.98-.74,1.64-.74c.57,0,1.03.14,1.39.42Z"/>
    <path class="st12" d="M539.91,797.86c.45.43.67,1.07.67,1.91s-.2,1.49-.59,2.02c-.39.53-1,.8-1.83.8-.69,0-1.24-.23-1.64-.7-.41-.47-.61-1.1-.61-1.89,0-.85.21-1.52.64-2.02.43-.5,1-.75,1.72-.75.65,0,1.19.22,1.64.65ZM539.38,801.21c.21-.42.31-.9.31-1.42,0-.47-.08-.85-.22-1.15-.24-.46-.64-.7-1.22-.7-.51,0-.89.2-1.12.59-.23.4-.35.87-.35,1.43s.12.98.35,1.34c.23.36.6.54,1.11.54.56,0,.94-.21,1.14-.64Z"/>
    <path class="st12" d="M541.62,797.35h.84v.72c.2-.25.38-.43.55-.54.28-.19.6-.29.95-.29.4,0,.73.1.97.3.14.11.26.28.38.5.19-.27.41-.47.67-.6.25-.13.54-.2.86-.2.68,0,1.14.25,1.39.74.13.26.2.62.2,1.07v3.36h-.88v-3.51c0-.34-.08-.57-.25-.69-.17-.13-.37-.19-.61-.19-.33,0-.62.11-.86.33-.24.22-.36.6-.36,1.12v2.94h-.86v-3.29c0-.34-.04-.59-.12-.75-.13-.24-.37-.35-.72-.35-.32,0-.61.12-.87.37s-.39.7-.39,1.35v2.68h-.85v-5.05Z"/>
  </g>
  <g>
    <path class="st12" d="M356.51,807.45h1.06l2.51,6.92h-1.03l-.7-2.07h-2.74l-.75,2.07h-.96l2.61-6.92ZM358.05,811.54l-1.05-3.06-1.12,3.06h2.17Z"/>
    <path class="st12" d="M363.59,809.48c.15.09.32.26.51.5v-2.55h.82v6.95h-.76v-.7c-.2.31-.43.54-.7.67s-.58.21-.92.21c-.56,0-1.05-.24-1.46-.71s-.62-1.1-.62-1.89c0-.74.19-1.37.56-1.91s.91-.81,1.6-.81c.38,0,.71.08.97.25ZM361.7,813.27c.23.36.59.55,1.1.55.39,0,.71-.17.96-.51.25-.34.38-.82.38-1.45s-.13-1.11-.39-1.42c-.26-.31-.58-.46-.96-.46-.42,0-.77.16-1.03.49-.26.33-.4.81-.4,1.44,0,.54.11.99.34,1.36Z"/>
    <path class="st12" d="M368.96,809.48c.15.09.32.26.51.5v-2.55h.82v6.95h-.76v-.7c-.2.31-.43.54-.7.67s-.58.21-.92.21c-.56,0-1.05-.24-1.46-.71s-.62-1.1-.62-1.89c0-.74.19-1.37.56-1.91s.91-.81,1.6-.81c.38,0,.71.08.97.25ZM367.07,813.27c.23.36.59.55,1.1.55.39,0,.71-.17.96-.51.25-.34.38-.82.38-1.45s-.13-1.11-.39-1.42c-.26-.31-.58-.46-.96-.46-.42,0-.77.16-1.03.49-.26.33-.4.81-.4,1.44,0,.54.11.99.34,1.36Z"/>
    <path class="st12" d="M371.58,809.33h.81v.87c.07-.17.23-.38.49-.62s.55-.37.89-.37c.02,0,.04,0,.08,0s.1,0,.19.02v.9c-.05,0-.1-.02-.14-.02-.04,0-.09,0-.14,0-.43,0-.76.14-.99.41-.23.28-.34.59-.34.95v2.9h-.85v-5.05Z"/>
    <path class="st12" d="M377.89,809.46c.33.17.59.39.76.65.17.25.28.55.34.89.05.23.08.6.08,1.11h-3.67c.02.51.14.93.36,1.24.22.31.57.46,1.04.46.44,0,.79-.15,1.05-.44.15-.17.25-.37.31-.59h.83c-.02.19-.1.39-.22.62s-.26.41-.42.56c-.26.25-.57.42-.95.51-.2.05-.43.08-.69.08-.62,0-1.15-.23-1.59-.69-.43-.46-.65-1.1-.65-1.92s.22-1.47.66-1.97c.44-.51,1.01-.76,1.71-.76.36,0,.7.08,1.04.25ZM378.19,811.45c-.03-.37-.11-.66-.24-.88-.23-.41-.62-.61-1.15-.61-.39,0-.71.14-.97.42s-.4.64-.42,1.07h2.78Z"/>
    <path class="st12" d="M380.65,812.79c.03.28.1.5.22.65.22.27.6.41,1.14.41.32,0,.6-.07.85-.21.24-.14.37-.35.37-.63,0-.22-.1-.38-.29-.5-.12-.07-.37-.15-.74-.24l-.69-.17c-.44-.11-.76-.23-.97-.36-.37-.23-.56-.55-.56-.95,0-.48.17-.86.52-1.16.35-.29.82-.44,1.41-.44.77,0,1.33.22,1.67.67.21.28.32.59.31.91h-.8c-.02-.19-.08-.36-.21-.52-.2-.22-.55-.33-1.04-.33-.33,0-.58.06-.75.18s-.25.28-.25.48c0,.22.11.39.33.53.13.08.32.15.57.21l.57.14c.62.15,1.04.29,1.25.43.33.22.49.56.49,1.02s-.17.84-.52,1.16c-.34.33-.87.49-1.58.49-.76,0-1.3-.17-1.62-.51s-.49-.76-.51-1.27h.82Z"/>
    <path class="st12" d="M385.47,812.79c.03.28.1.5.22.65.22.27.6.41,1.14.41.32,0,.6-.07.85-.21.24-.14.37-.35.37-.63,0-.22-.1-.38-.29-.5-.12-.07-.37-.15-.74-.24l-.69-.17c-.44-.11-.76-.23-.97-.36-.37-.23-.56-.55-.56-.95,0-.48.17-.86.52-1.16.35-.29.82-.44,1.41-.44.77,0,1.33.22,1.67.67.21.28.32.59.31.91h-.8c-.02-.19-.08-.36-.21-.52-.2-.22-.55-.33-1.04-.33-.33,0-.58.06-.75.18s-.25.28-.25.48c0,.22.11.39.33.53.13.08.32.15.57.21l.57.14c.62.15,1.04.29,1.25.43.33.22.49.56.49,1.02s-.17.84-.52,1.16c-.34.33-.87.49-1.58.49-.76,0-1.3-.17-1.62-.51s-.49-.76-.51-1.27h.82Z"/>
    <path class="st12" d="M390.24,809.39h.98v1.03h-.98v-1.03ZM390.24,813.35h.98v1.03h-.98v-1.03Z"/>
    <path class="st12" d="M395.2,812.86c.21-.43.62-.82,1.22-1.17l.9-.52c.41-.24.69-.44.85-.6.26-.26.39-.56.39-.9,0-.39-.12-.71-.35-.94-.24-.23-.55-.35-.94-.35-.58,0-.98.22-1.21.66-.12.24-.19.56-.2.98h-.86c0-.59.12-1.07.33-1.44.37-.65,1.02-.98,1.95-.98.77,0,1.34.21,1.69.63.36.42.54.88.54,1.4,0,.54-.19,1-.57,1.39-.22.22-.61.49-1.18.81l-.65.36c-.31.17-.55.33-.73.49-.31.27-.51.58-.59.91h3.69v.8h-4.63c.03-.58.15-1.09.36-1.52Z"/>
    <path class="st12" d="M401.1,812.65c.06.48.28.82.67,1,.2.09.43.14.7.14.5,0,.88-.16,1.12-.48.24-.32.36-.68.36-1.07,0-.47-.14-.84-.43-1.09-.29-.26-.63-.39-1.04-.39-.29,0-.54.06-.75.17s-.39.27-.54.47l-.73-.04.51-3.63h3.51v.82h-2.87l-.29,1.88c.16-.12.31-.21.45-.27.25-.1.54-.16.87-.16.62,0,1.14.2,1.57.6.43.4.65.9.65,1.52s-.2,1.2-.59,1.69c-.39.49-1.02.73-1.89.73-.55,0-1.04-.16-1.46-.46s-.66-.78-.71-1.43h.88Z"/>
    <path class="st12" d="M406.47,812.65c.06.48.28.82.67,1,.2.09.43.14.7.14.5,0,.88-.16,1.12-.48.24-.32.36-.68.36-1.07,0-.47-.14-.84-.43-1.09-.29-.26-.63-.39-1.04-.39-.29,0-.54.06-.75.17s-.39.27-.54.47l-.73-.04.51-3.63h3.51v.82h-2.87l-.29,1.88c.16-.12.31-.21.45-.27.25-.1.54-.16.87-.16.62,0,1.14.2,1.57.6.43.4.65.9.65,1.52s-.2,1.2-.59,1.69c-.39.49-1.02.73-1.89.73-.55,0-1.04-.16-1.46-.46s-.66-.78-.71-1.43h.88Z"/>
    <path class="st12" d="M414.04,807.45h2.99c.82,0,1.4.24,1.74.73.2.29.3.62.3.99,0,.44-.12.79-.37,1.07-.13.15-.31.28-.56.41.35.14.62.29.8.46.31.3.47.72.47,1.25,0,.45-.14.85-.42,1.21-.42.54-1.09.81-2.01.81h-2.95v-6.92ZM416.68,810.38c.4,0,.71-.05.93-.17.35-.17.52-.48.52-.93s-.19-.76-.56-.91c-.21-.09-.52-.13-.93-.13h-1.69v2.14h1.72ZM417,813.57c.58,0,.99-.17,1.24-.5.16-.21.23-.46.23-.76,0-.5-.23-.85-.68-1.03-.24-.1-.56-.15-.96-.15h-1.88v2.44h2.04Z"/>
    <path class="st12" d="M420.41,807.45h.85v6.92h-.85v-6.92Z"/>
    <path class="st12" d="M425.23,811.32c.19-.03.33-.11.39-.25.04-.08.06-.18.06-.33,0-.29-.1-.5-.31-.63-.21-.13-.5-.2-.88-.2-.44,0-.76.12-.94.36-.1.13-.17.33-.2.59h-.79c.02-.62.22-1.06.61-1.3.39-.24.84-.37,1.35-.37.59,0,1.07.11,1.45.34.37.23.55.58.55,1.06v2.91c0,.09.02.16.05.21.04.05.11.08.23.08.04,0,.08,0,.13,0,.05,0,.1-.01.15-.02v.63c-.13.04-.23.06-.3.07-.07,0-.16.01-.28.01-.29,0-.5-.1-.64-.31-.07-.11-.12-.27-.15-.47-.17.23-.42.42-.74.59-.32.17-.68.25-1.07.25-.47,0-.85-.14-1.15-.43-.3-.28-.45-.64-.45-1.07,0-.47.15-.83.44-1.09.29-.26.67-.42,1.15-.48l1.35-.17ZM423.45,813.61c.18.14.39.21.64.21.3,0,.59-.07.87-.21.47-.23.71-.6.71-1.12v-.68c-.1.07-.24.12-.4.17-.16.04-.32.08-.48.09l-.51.07c-.31.04-.54.11-.69.19-.26.15-.39.38-.39.71,0,.25.09.44.27.58Z"/>
    <path class="st12" d="M431.23,809.59c.36.28.57.75.64,1.43h-.83c-.05-.31-.17-.57-.34-.78-.18-.21-.47-.31-.86-.31-.54,0-.93.26-1.16.79-.15.34-.23.76-.23,1.27s.11.93.32,1.28c.21.35.55.52,1.01.52.35,0,.63-.11.84-.32.21-.21.35-.51.43-.88h.83c-.09.67-.33,1.16-.71,1.47s-.86.46-1.45.46c-.66,0-1.19-.24-1.58-.72s-.59-1.08-.59-1.81c0-.89.21-1.58.65-2.07s.98-.74,1.64-.74c.57,0,1.03.14,1.39.42Z"/>
    <path class="st12" d="M432.71,807.45h.82v4.02l2.18-2.14h1.08l-1.94,1.88,2.05,3.17h-1.08l-1.59-2.57-.7.67v1.89h-.82v-6.92Z"/>
    <path class="st12" d="M437.48,807.43h.82v2.51c.19-.24.41-.43.67-.55.26-.13.54-.19.84-.19.63,0,1.14.22,1.54.65.39.43.59,1.07.59,1.91s-.19,1.46-.58,1.99c-.39.53-.93.79-1.61.79-.38,0-.71-.09-.97-.28-.16-.11-.33-.29-.51-.53v.65h-.78v-6.95ZM440.72,813.24c.23-.36.34-.85.34-1.44,0-.53-.11-.97-.34-1.32-.23-.35-.57-.52-1.01-.52-.39,0-.73.14-1.02.43s-.44.76-.44,1.41c0,.47.06.86.18,1.15.22.56.64.83,1.25.83.46,0,.81-.18,1.03-.55Z"/>
    <path class="st12" d="M443.77,809.33v3.35c0,.26.04.47.12.63.15.3.42.45.82.45.58,0,.97-.26,1.17-.79.11-.28.17-.67.17-1.16v-2.48h.85v5.05h-.8v-.75c-.1.19-.23.35-.39.49-.32.26-.7.4-1.16.4-.71,0-1.19-.24-1.44-.72-.14-.26-.21-.6-.21-1.03v-3.43h.87Z"/>
    <path class="st12" d="M448.31,809.33h.81v.87c.07-.17.23-.38.49-.62s.55-.37.89-.37c.02,0,.04,0,.08,0s.1,0,.19.02v.9c-.05,0-.1-.02-.14-.02-.04,0-.09,0-.14,0-.43,0-.76.14-.99.41-.23.28-.34.59-.34.95v2.9h-.85v-5.05Z"/>
    <path class="st12" d="M451.5,809.33h.81v.72c.24-.29.49-.51.76-.64.27-.13.56-.19.89-.19.72,0,1.2.25,1.45.75.14.27.21.67.21,1.17v3.24h-.86v-3.18c0-.31-.04-.56-.14-.75-.15-.31-.42-.47-.82-.47-.2,0-.37.02-.5.06-.23.07-.44.21-.61.41-.14.17-.23.34-.28.52s-.06.43-.06.76v2.64h-.85v-5.05Z"/>
    <path class="st12" d="M459.78,807.45h3.15c.52,0,.95.08,1.28.23.64.3.96.84.96,1.64,0,.42-.09.75-.26,1.02-.17.26-.41.48-.72.64.27.11.47.25.61.43.14.18.21.47.23.87l.03.93c0,.26.03.46.07.59.06.22.16.36.3.42v.16h-1.15c-.03-.06-.06-.14-.08-.23-.02-.09-.04-.28-.05-.55l-.06-1.16c-.02-.45-.18-.76-.49-.91-.17-.08-.45-.13-.82-.13h-2.08v2.97h-.94v-6.92ZM462.83,810.62c.43,0,.77-.09,1.02-.26s.37-.49.37-.95c0-.49-.17-.83-.52-1.01-.19-.09-.44-.14-.75-.14h-2.23v2.37h2.11Z"/>
    <path class="st12" d="M469.3,809.48c.15.09.32.26.51.5v-2.55h.82v6.95h-.76v-.7c-.2.31-.43.54-.7.67s-.58.21-.92.21c-.56,0-1.05-.24-1.46-.71s-.62-1.1-.62-1.89c0-.74.19-1.37.56-1.91s.91-.81,1.6-.81c.38,0,.71.08.97.25ZM467.4,813.27c.23.36.59.55,1.1.55.39,0,.71-.17.96-.51.25-.34.38-.82.38-1.45s-.13-1.11-.39-1.42c-.26-.31-.58-.46-.96-.46-.42,0-.77.16-1.03.49-.26.33-.4.81-.4,1.44,0,.54.11.99.34,1.36Z"/>
    <path class="st12" d="M472.07,815.36c.22-.04.37-.19.46-.46.05-.14.07-.28.07-.41,0-.02,0-.04,0-.06,0-.02,0-.04-.01-.06h-.51v-1.03h1.01v.95c0,.37-.08.7-.23.99-.15.28-.41.46-.78.52v-.44Z"/>
    <path class="st12" d="M477.35,807.45h1.34l1.99,5.85,1.98-5.85h1.33v6.92h-.9v-4.09c0-.14,0-.38,0-.7,0-.33,0-.68,0-1.05l-1.98,5.84h-.93l-2-5.84v.21c0,.17,0,.43.01.78,0,.35.01.6.01.77v4.09h-.9v-6.92Z"/>
    <path class="st12" d="M488.96,809.83c.45.43.67,1.07.67,1.91s-.2,1.49-.59,2.02c-.39.53-1,.8-1.83.8-.69,0-1.24-.23-1.64-.7-.41-.47-.61-1.1-.61-1.89,0-.85.21-1.52.64-2.02.43-.5,1-.75,1.72-.75.65,0,1.19.22,1.64.65ZM488.43,813.18c.21-.42.31-.9.31-1.42,0-.47-.08-.85-.22-1.15-.24-.46-.64-.7-1.22-.7-.51,0-.89.2-1.12.59-.23.4-.35.87-.35,1.43s.12.98.35,1.34c.23.36.6.54,1.11.54.56,0,.94-.21,1.14-.64Z"/>
    <path class="st12" d="M491.51,809.33v3.35c0,.26.04.47.12.63.15.3.42.45.82.45.58,0,.97-.26,1.17-.79.11-.28.17-.67.17-1.16v-2.48h.85v5.05h-.8v-.75c-.1.19-.23.35-.39.49-.32.26-.7.4-1.16.4-.71,0-1.19-.24-1.44-.72-.14-.26-.21-.6-.21-1.03v-3.43h.87Z"/>
    <path class="st12" d="M496.04,809.33h.81v.72c.24-.29.49-.51.76-.64.27-.13.56-.19.89-.19.72,0,1.2.25,1.45.75.14.27.21.67.21,1.17v3.24h-.86v-3.18c0-.31-.04-.56-.14-.75-.15-.31-.42-.47-.82-.47-.2,0-.37.02-.5.06-.23.07-.44.21-.61.41-.14.17-.23.34-.28.52s-.06.43-.06.76v2.64h-.85v-5.05Z"/>
    <path class="st12" d="M501.57,807.92h.86v1.41h.81v.69h-.81v3.29c0,.18.06.29.18.35.07.03.18.05.33.05.04,0,.08,0,.13,0,.05,0,.1,0,.17-.02v.67c-.1.03-.2.05-.3.06s-.22.02-.34.02c-.4,0-.66-.1-.81-.3-.14-.2-.21-.47-.21-.79v-3.34h-.68v-.69h.68v-1.41Z"/>
    <path class="st12" d="M507.34,807.45l1.3,5.62,1.57-5.62h1.01l1.57,5.64,1.31-5.64h1.03l-1.82,6.92h-.99l-1.6-5.74-1.61,5.74h-.99l-1.81-6.92h1.02Z"/>
    <path class="st12" d="M518.23,811.32c.19-.03.33-.11.39-.25.04-.08.06-.18.06-.33,0-.29-.1-.5-.31-.63-.21-.13-.5-.2-.88-.2-.44,0-.76.12-.94.36-.1.13-.17.33-.2.59h-.79c.02-.62.22-1.06.61-1.3.39-.24.84-.37,1.35-.37.59,0,1.07.11,1.45.34.37.23.55.58.55,1.06v2.91c0,.09.02.16.05.21.04.05.11.08.23.08.04,0,.08,0,.13,0,.05,0,.1-.01.15-.02v.63c-.13.04-.23.06-.3.07-.07,0-.16.01-.28.01-.29,0-.5-.1-.64-.31-.07-.11-.12-.27-.15-.47-.17.23-.42.42-.74.59-.32.17-.68.25-1.07.25-.47,0-.85-.14-1.15-.43-.3-.28-.45-.64-.45-1.07,0-.47.15-.83.44-1.09.29-.26.67-.42,1.15-.48l1.35-.17ZM516.44,813.61c.18.14.39.21.64.21.3,0,.59-.07.87-.21.47-.23.71-.6.71-1.12v-.68c-.1.07-.24.12-.4.17-.16.04-.32.08-.48.09l-.51.07c-.31.04-.54.11-.69.19-.26.15-.39.38-.39.71,0,.25.09.44.27.58Z"/>
    <path class="st12" d="M521.31,809.33l1.35,4.11,1.4-4.11h.93l-1.9,5.05h-.9l-1.86-5.05h.98Z"/>
    <path class="st12" d="M528.84,809.46c.33.17.59.39.76.65.17.25.28.55.34.89.05.23.08.6.08,1.11h-3.67c.02.51.14.93.36,1.24.22.31.57.46,1.04.46.44,0,.79-.15,1.05-.44.15-.17.25-.37.31-.59h.83c-.02.19-.1.39-.22.62s-.26.41-.42.56c-.26.25-.57.42-.95.51-.2.05-.43.08-.69.08-.62,0-1.15-.23-1.59-.69-.43-.46-.65-1.1-.65-1.92s.22-1.47.66-1.97c.44-.51,1.01-.76,1.71-.76.36,0,.7.08,1.04.25ZM529.14,811.45c-.03-.37-.11-.66-.24-.88-.23-.41-.62-.61-1.15-.61-.39,0-.71.14-.97.42s-.4.64-.42,1.07h2.78Z"/>
    <path class="st12" d="M531.11,809.33h.81v.87c.07-.17.23-.38.49-.62s.55-.37.89-.37c.02,0,.04,0,.08,0s.1,0,.19.02v.9c-.05,0-.1-.02-.14-.02-.04,0-.09,0-.14,0-.43,0-.76.14-.99.41-.23.28-.34.59-.34.95v2.9h-.85v-5.05Z"/>
    <path class="st12" d="M534.33,807.45h.85v6.92h-.85v-6.92Z"/>
    <path class="st12" d="M539.57,809.46c.33.17.59.39.76.65.17.25.28.55.34.89.05.23.08.6.08,1.11h-3.67c.02.51.14.93.36,1.24.22.31.57.46,1.04.46.44,0,.79-.15,1.05-.44.15-.17.25-.37.31-.59h.83c-.02.19-.1.39-.22.62s-.26.41-.42.56c-.26.25-.57.42-.95.51-.2.05-.43.08-.69.08-.62,0-1.15-.23-1.59-.69-.43-.46-.65-1.1-.65-1.92s.22-1.47.66-1.97c.44-.51,1.01-.76,1.71-.76.36,0,.7.08,1.04.25ZM539.87,811.45c-.03-.37-.11-.66-.24-.88-.23-.41-.62-.61-1.15-.61-.39,0-.71.14-.97.42s-.4.64-.42,1.07h2.78Z"/>
    <path class="st12" d="M544.97,809.33h.94c-.12.32-.38,1.06-.8,2.22-.31.87-.57,1.58-.77,2.12-.49,1.29-.83,2.07-1.04,2.36-.2.28-.55.42-1.04.42-.12,0-.21,0-.28-.01-.06,0-.14-.03-.24-.05v-.77c.15.04.25.07.32.08s.12.01.17.01c.16,0,.27-.03.35-.08.07-.05.14-.12.19-.19.02-.03.07-.15.17-.39.1-.23.17-.4.21-.52l-1.87-5.2h.96l1.35,4.11,1.36-4.11Z"/>
  </g>
  <text class="st2" transform="translate(206.17 222.41)"><tspan x="0" y="0">1</tspan></text>
  <text class="st2" transform="translate(206.17 250.43)"><tspan x="0" y="0">2</tspan></text>
  <text class="st2" transform="translate(206.44 278.45)"><tspan x="0" y="0">3</tspan></text>
  <text class="st2" transform="translate(179.27 590.33)"><tspan x="0" y="0">4</tspan></text>
  <text class="st1" transform="translate(327.71 727.44)"><tspan x="0" y="0">5</tspan></text>
  <text class="st1" transform="translate(327.71 745.52)"><tspan x="0" y="0">6</tspan></text>
  <rect class="st0" x="94.74" y="308.94" width="410.75" height="250.73"/>
</svg>