<?xml version="1.0" encoding="UTF-8"?>
<svg id="Layer_1" xmlns="http://www.w3.org/2000/svg" version="1.1" width="595.28" height="841.89" viewBox="0 0 595.28 841.89">
  <!-- Generator: Adobe Illustrator 29.8.1, SVG Export Plug-In . SVG Version: 2.1.1 Build 2)  -->
  <defs>
    <style>
      .st0 {
        fill: #0e0e0d;
      }

      .st1 {
        fill: #f0d551;
      }

      .st2 {
        fill: #fff;
        font-family: Helvetica, Arial, sans-serif;
        font-size: 9.65px;
        font-weight: 300;
      }

      .st3 {
        font-size: 25.1px;
        letter-spacing: .06em;
      }

      .st3, .st4, .st5, .st6 {
        font-family: Helvetica, Arial, sans-serif;
        font-weight: 700;
      }

      .st7 {
        fill: #eed553;
      }

      .st4 {
        font-size: 33.46px;
        letter-spacing: 0em;
      }

      .st8 {
        fill: #4c95c4;
      }

      .st9 {
        font-family: 'BrushATF-Book';
        font-size: 21.56px;
        letter-spacing: .03em;
      }

      .st10 {
        fill: #0e0f0e;
      }

      .st5 {
        letter-spacing: .06em;
      }

      .st5, .st6 {
        font-size: 13.19px;
      }
    </style>
  </defs>
  <g>
    <path class="st8" d="M14.17,0c.64.87,1.63,1.22,2.58,1.6,62.13,24.86,123.92,59.48,189.83,22.95,12.9-7.15,22.66-16.67,36.33-22.93C243.86,1.19,245.2,1.76,244.81,0h100.5c-.34,1.55.79,1.33,1.7,1.81,4.17,2.2,8.38,4.35,12.14,7.21,16.41,12.45,25.87,35.96,33.19,54.66-115.17-.41-230.37.23-345.54.09l-.78.51c-.53,40.46-.26,81.09-.28,121.6-1.2-.05-1.97-.63-2.89-1.29-14.66-10.54-28.45-24.06-43.49-34.08V0h14.82Z"/>
    <path class="st8" d="M595.27,0v141.5c-7.11-2.52-14.35-7.54-20.55-11.97-8.69-6.21-18.42-14.45-25.84-22.12-7.69-7.94-15.41-21.2-25.1-26.08-26.84-13.5-67.93,8.32-90.25-12.17-1.33-1.22-2.88-4.43-4.5-5.16s-5.05-.29-7.07-.33c-.29-5.14.4-10.65-.01-15.75-.29-3.65-1.69-7.74-1.95-11.56C419.19,24.14,420.81,11.91,423.26,0h172.01Z"/>
    <path class="st10" d="M244.81,0c.39,1.76-.95,1.19-1.89,1.62-13.67,6.26-23.43,15.78-36.33,22.93C140.67,61.08,78.89,26.46,16.76,1.6,15.8,1.22,14.82.87,14.17,0h230.64Z"/>
    <path class="st10" d="M423.26,0c-2.45,11.91-4.08,24.14-3.25,36.37.26,3.83,1.66,7.91,1.95,11.56.41,5.09-.28,10.61.01,15.75-9.85-.24-19.78.04-29.63,0-7.32-18.69-16.78-42.2-33.19-54.66-3.77-2.86-7.97-5.01-12.14-7.21C346.1,1.33,344.97,1.55,345.31,0h77.95Z"/>
    <path class="st0" d="M45.74,185.87c-.01,25.93,0,51.89,0,77.82-8.85-3.38-17.67-6.82-26.72-9.66-5.44-1.71-12.9-4.32-18.37-5.13l-1.33-2.19c.08-32.07.05-64.15.04-96.21,15.04,10.02,28.83,23.55,43.49,34.08.92.66,1.7,1.24,2.89,1.29Z"/>
    <path class="st0" d="M595.28,471.44c-10.79-16.17-26.73-29.4-43.35-39.38-1-.6-1.7-1.35-3.04-1.15v-7.07c10.12-9.28,21.5-16.37,28.04-28.93,19.64-37.76,1.47-96.47-17.39-131.88-2.97-5.58-6.49-12.04-10.64-16.71V107.41c7.42,7.66,17.15,15.91,25.84,22.12,6.19,4.43,13.44,9.45,20.54,11.97v.64c0,109.76,0,219.54,0,329.3Z"/>
    <path class="st1" d="M289.72,833.03c-1.57,3.03-3.97,5.62-4.97,8.87H0v-280.42c.23-.08.45-.58.64-.64,19.52-6.37,37.18,19.02,45.1,33.44,12.52,22.82,16.64,49.72,29.52,71.82,33.59,57.63,106.25,63.87,163.27,84.63,12.48,4.54,28.78,10.89,39.14,19.13,21.45,17.08,24.49,39.12,12.05,63.17Z"/>
    <path class="st8" d="M595.28,472.08v-.64c-10.79-16.17-26.73-29.4-43.35-39.38-1-.6-1.7-1.35-3.04-1.15v338.95s-271.22,0-271.22,0c21.45,17.08,24.49,39.12,12.05,63.17-1.57,3.03-3.97,5.62-4.97,8.87h-.64v1.29h311.81v-371.11h-.64ZM595.28,841.9c-.96,0-1.92,0-2.89,0h-5.49c1.82-.02,3.66,0,5.49,0h2.89Z"/>
    <path class="st0" d="M551.73,810.4c-2.44-1.67-8.22-5.51-10.78-6.28-9.16-3.83-12.38-5.43-20.62-6.09-.61-.05-1.25-.09-1.92-.14-1.91-.11-4.08-.18-6.62-.23-8.55-.15-16.22,2.1-21.98,4.51h0l-24.18,11.41c-3.35,1.58-6.82,2.9-10.38,3.94-7.12,2.08-16.64,5.7-22.03,7.35-22.64,6.9-48.4,13.23-71.51,18.31h225.2c-10.14-11.44-22.49-24.1-35.17-32.78Z"/>
    <path class="st7" d="M45.74,263.7c0,30.65,0,61.33,0,91.97-14.28,13.43-29.57,34.81-25.59,55.46,2.8,14.53,13.9,26.32,25.59,34.59v65.6c-1.35.27-2.3-.33-3.46-.72-13.98-4.71-27.73-10.39-41.64-15.35-.2-.07-.42-.57-.64-.64v-245.69c.21,0,.44-.03.64,0,5.47.81,12.93,3.42,18.37,5.13,9.05,2.84,17.88,6.28,26.72,9.66Z"/>
    <path class="st0" d="M45.74,511.31v82.97c-7.92-14.43-25.58-39.81-45.1-33.44-1.95.36-1.24-.98-1.29-2.22-.77-19.45-.65-41.68,0-61.16.04-1.24-.66-2.58,1.29-2.22,13.91,4.96,27.66,10.65,41.64,15.35,1.16.39,2.11.99,3.46.72Z"/>
    <path class="st7" d="M548.89,423.84v-177.51c4.15,4.67,7.67,11.13,10.64,16.71,18.86,35.4,37.04,94.12,17.39,131.88-6.54,12.56-17.92,19.64-28.04,28.93Z"/>
    <path class="st8" d="M45.74,445.71c-11.69-8.26-22.79-20.06-25.59-34.59-3.98-20.65,11.31-42.03,25.59-55.46v90.04Z"/>
  </g>
  <text class="st4" transform="translate(238.28 118.23)"><tspan x="0" y="0">New Star Art</tspan></text>
  <text class="st9" transform="translate(261.37 140.69)"><tspan x="0" y="0">Attracting Excellence</tspan></text>
  <text class="st3" transform="translate(165.44 191.22)"><tspan x="0" y="0">2025 Annual Report</tspan></text>
  <text class="st5" transform="translate(93.19 235.52)"><tspan x="0" y="0">Student Name:</tspan></text>
  <text id="student-name" class="st5" transform="translate(200 235.52)"><tspan x="0" y="0"></tspan></text>
  <text class="st5" transform="translate(93.19 263.47)"><tspan x="0" y="0">Class Level:</tspan></text>
  <text id="class-level" class="st5" transform="translate(200 263.47)"><tspan x="0" y="0"></tspan></text>
  <text class="st5" transform="translate(93.19 291.42)"><tspan x="0" y="0">Class Location:</tspan></text>
  <text id="class-location" class="st5" transform="translate(220 291.42)"><tspan x="0" y="0"></tspan></text>
  <text class="st5" transform="translate(93.19 536.37)"><tspan x="0" y="0">Comments:</tspan></text>
  <text id="comments" class="st5" transform="translate(200 536.37)"><tspan x="0" y="0"></tspan></text>
  <text class="st6" transform="translate(272.1 728.88)"><tspan x="0" y="0">Teacher:</tspan></text>
  <text id="teacher" class="st6" transform="translate(340 728.88)"><tspan x="0" y="0"></tspan></text>
  <text class="st2" transform="translate(450.44 791.43)"><tspan x="0" y="0">Contact: 0478 562 853</tspan></text>
  <text class="st2" transform="translate(425.51 803.4)"><tspan x="0" y="0">Email: info@newstartart.com</tspan></text>
  <text class="st2" transform="translate(353.76 815.37)"><tspan x="0" y="0">Address: 255 Blackburn Rd, Mount Waverley</tspan></text>
  <text class="st6" transform="translate(272.1 746.74)"><tspan x="0" y="0">Date:</tspan></text>
  <text id="date" class="st6" transform="translate(340 746.74)"><tspan x="0" y="0"></tspan></text>
</svg>
